<svg xmlns="http://www.w3.org/2000/svg" xmlns:xlink="http://www.w3.org/1999/xlink" viewBox="0 0 1190.55 841.89"><defs><style>.cls-1{mask:url(#mask);filter:url(#luminosity-noclip-2);}.cls-102,.cls-109,.cls-110,.cls-128,.cls-136,.cls-137,.cls-139,.cls-144,.cls-145,.cls-146,.cls-147,.cls-149,.cls-153,.cls-154,.cls-155,.cls-157,.cls-158,.cls-160,.cls-161,.cls-162,.cls-163,.cls-167,.cls-168,.cls-2,.cls-23,.cls-37,.cls-51,.cls-60,.cls-61,.cls-68,.cls-75,.cls-8,.cls-94{mix-blend-mode:multiply;}.cls-2{fill:url(#linear-gradient);}.cls-3{isolation:isolate;}.cls-4{fill:#40bfb5;}.cls-132,.cls-5,.cls-6{mix-blend-mode:soft-light;}.cls-6,.cls-7{fill:#fff;}.cls-10,.cls-11,.cls-12,.cls-13,.cls-14,.cls-15,.cls-16,.cls-17,.cls-18,.cls-19,.cls-20,.cls-21,.cls-23,.cls-24,.cls-25,.cls-26,.cls-27,.cls-28,.cls-29,.cls-30,.cls-31,.cls-32,.cls-33,.cls-34,.cls-35,.cls-37,.cls-38,.cls-39,.cls-40,.cls-41,.cls-42,.cls-43,.cls-44,.cls-45,.cls-46,.cls-47,.cls-48,.cls-49,.cls-51,.cls-52,.cls-53,.cls-54,.cls-55,.cls-56,.cls-57,.cls-58,.cls-59,.cls-60,.cls-61,.cls-62,.cls-63,.cls-64,.cls-65,.cls-66,.cls-67,.cls-68,.cls-69,.cls-70,.cls-71,.cls-72,.cls-73,.cls-74,.cls-75,.cls-76,.cls-77,.cls-78,.cls-79,.cls-8,.cls-80,.cls-81,.cls-83,.cls-84,.cls-85,.cls-9{fill-rule:evenodd;}.cls-128,.cls-136,.cls-137,.cls-139,.cls-144,.cls-145,.cls-146,.cls-147,.cls-149,.cls-153,.cls-154,.cls-155,.cls-160,.cls-163,.cls-23,.cls-37,.cls-60,.cls-8,.cls-89,.cls-90,.cls-93,.cls-94{opacity:0.5;}.cls-8{fill:url(#Áåçûìÿííûé_ãðàäèåíò_513);}.cls-9{fill:#c74a3b;}.cls-10{fill:url(#Áåçûìÿííûé_ãðàäèåíò_238);}.cls-11{fill:url(#Áåçûìÿííûé_ãðàäèåíò_67);}.cls-12{fill:url(#Áåçûìÿííûé_ãðàäèåíò_67-2);}.cls-13{fill:url(#Áåçûìÿííûé_ãðàäèåíò_60);}.cls-14{fill:url(#Áåçûìÿííûé_ãðàäèåíò_60-2);}.cls-15{fill:url(#Áåçûìÿííûé_ãðàäèåíò_60-3);}.cls-16{fill:url(#Áåçûìÿííûé_ãðàäèåíò_60-4);}.cls-17{fill:url(#Áåçûìÿííûé_ãðàäèåíò_60-5);}.cls-18{fill:url(#Áåçûìÿííûé_ãðàäèåíò_60-6);}.cls-19{fill:url(#Áåçûìÿííûé_ãðàäèåíò_60-7);}.cls-20{fill:url(#Áåçûìÿííûé_ãðàäèåíò_67-3);}.cls-21{fill:url(#Áåçûìÿííûé_ãðàäèåíò_67-4);}.cls-22{fill:url(#Áåçûìÿííûé_ãðàäèåíò_238-2);}.cls-23{fill:url(#Áåçûìÿííûé_ãðàäèåíò_513-2);}.cls-24{fill:url(#Áåçûìÿííûé_ãðàäèåíò_238-3);}.cls-25{fill:url(#Áåçûìÿííûé_ãðàäèåíò_67-5);}.cls-26{fill:url(#Áåçûìÿííûé_ãðàäèåíò_67-6);}.cls-27{fill:url(#Áåçûìÿííûé_ãðàäèåíò_60-8);}.cls-28{fill:url(#Áåçûìÿííûé_ãðàäèåíò_60-9);}.cls-29{fill:url(#Áåçûìÿííûé_ãðàäèåíò_60-10);}.cls-30{fill:url(#Áåçûìÿííûé_ãðàäèåíò_60-11);}.cls-31{fill:url(#Áåçûìÿííûé_ãðàäèåíò_60-12);}.cls-32{fill:url(#Áåçûìÿííûé_ãðàäèåíò_60-13);}.cls-33{fill:url(#Áåçûìÿííûé_ãðàäèåíò_60-14);}.cls-34{fill:url(#Áåçûìÿííûé_ãðàäèåíò_67-7);}.cls-35{fill:url(#Áåçûìÿííûé_ãðàäèåíò_67-8);}.cls-36{fill:url(#Áåçûìÿííûé_ãðàäèåíò_238-4);}.cls-37{fill:url(#Áåçûìÿííûé_ãðàäèåíò_513-3);}.cls-38{fill:url(#Áåçûìÿííûé_ãðàäèåíò_238-5);}.cls-39{fill:url(#Áåçûìÿííûé_ãðàäèåíò_67-9);}.cls-40{fill:url(#Áåçûìÿííûé_ãðàäèåíò_67-10);}.cls-41{fill:url(#Áåçûìÿííûé_ãðàäèåíò_60-15);}.cls-42{fill:url(#Áåçûìÿííûé_ãðàäèåíò_60-16);}.cls-43{fill:url(#Áåçûìÿííûé_ãðàäèåíò_60-17);}.cls-44{fill:url(#Áåçûìÿííûé_ãðàäèåíò_60-18);}.cls-45{fill:url(#Áåçûìÿííûé_ãðàäèåíò_60-19);}.cls-46{fill:url(#Áåçûìÿííûé_ãðàäèåíò_60-20);}.cls-47{fill:url(#Áåçûìÿííûé_ãðàäèåíò_60-21);}.cls-48{fill:url(#Áåçûìÿííûé_ãðàäèåíò_67-11);}.cls-49{fill:url(#Áåçûìÿííûé_ãðàäèåíò_67-12);}.cls-50{fill:url(#Áåçûìÿííûé_ãðàäèåíò_238-6);}.cls-51,.cls-61,.cls-68,.cls-75{opacity:0.42;}.cls-51{fill:url(#Áåçûìÿííûé_ãðàäèåíò_265);}.cls-52{fill:url(#Áåçûìÿííûé_ãðàäèåíò_59);}.cls-53{fill:url(#Áåçûìÿííûé_ãðàäèåíò_11);}.cls-54{fill:url(#Áåçûìÿííûé_ãðàäèåíò_11-2);}.cls-55{fill:url(#Áåçûìÿííûé_ãðàäèåíò_173);}.cls-56{fill:url(#Áåçûìÿííûé_ãðàäèåíò_151);}.cls-57{fill:url(#Áåçûìÿííûé_ãðàäèåíò_173-2);}.cls-58{fill:#ae90ff;}.cls-59{fill:#ffa200;}.cls-60{fill:#872129;}.cls-61{fill:url(#Áåçûìÿííûé_ãðàäèåíò_265-2);}.cls-62{fill:url(#Áåçûìÿííûé_ãðàäèåíò_59-2);}.cls-63{fill:url(#Áåçûìÿííûé_ãðàäèåíò_11-3);}.cls-64{fill:url(#Áåçûìÿííûé_ãðàäèåíò_11-4);}.cls-65{fill:url(#Áåçûìÿííûé_ãðàäèåíò_173-3);}.cls-66{fill:url(#Áåçûìÿííûé_ãðàäèåíò_151-2);}.cls-67{fill:url(#Áåçûìÿííûé_ãðàäèåíò_173-4);}.cls-68{fill:url(#Áåçûìÿííûé_ãðàäèåíò_265-3);}.cls-69{fill:url(#Áåçûìÿííûé_ãðàäèåíò_59-3);}.cls-70{fill:url(#Áåçûìÿííûé_ãðàäèåíò_11-5);}.cls-71{fill:url(#Áåçûìÿííûé_ãðàäèåíò_11-6);}.cls-72{fill:url(#Áåçûìÿííûé_ãðàäèåíò_173-5);}.cls-73{fill:url(#Áåçûìÿííûé_ãðàäèåíò_151-3);}.cls-74{fill:url(#Áåçûìÿííûé_ãðàäèåíò_173-6);}.cls-75{fill:url(#Áåçûìÿííûé_ãðàäèåíò_265-4);}.cls-76{fill:url(#Áåçûìÿííûé_ãðàäèåíò_59-4);}.cls-77{fill:url(#Áåçûìÿííûé_ãðàäèåíò_11-7);}.cls-78{fill:url(#Áåçûìÿííûé_ãðàäèåíò_11-8);}.cls-79{fill:url(#Áåçûìÿííûé_ãðàäèåíò_173-7);}.cls-80{fill:url(#Áåçûìÿííûé_ãðàäèåíò_151-4);}.cls-81{fill:url(#Áåçûìÿííûé_ãðàäèåíò_173-8);}.cls-82{fill:url(#Áåçûìÿííûé_ãðàäèåíò_156);}.cls-83{fill:url(#Áåçûìÿííûé_ãðàäèåíò_81);}.cls-84{fill:url(#Áåçûìÿííûé_ãðàäèåíò_100);}.cls-85{fill:url(#Áåçûìÿííûé_ãðàäèåíò_113);}.cls-86{fill:url(#linear-gradient-2);}.cls-87{fill:#c0f8ff;}.cls-88{fill:#bae5ff;}.cls-89,.cls-90,.cls-91{mix-blend-mode:color-dodge;}.cls-89{fill:url(#Áåçûìÿííûé_ãðàäèåíò_212);}.cls-90{fill:url(#Áåçûìÿííûé_ãðàäèåíò_212-2);}.cls-91{opacity:0.88;fill:url(#Áåçûìÿííûé_ãðàäèåíò_108);}.cls-92{fill:#ff8e34;}.cls-93{fill:#ffac34;}.cls-94{fill:#d18c90;}.cls-95{fill:#f1f3f0;}.cls-96{fill:#acb5d0;}.cls-97{fill:#e2e6e0;}.cls-98{fill:#ffffb1;}.cls-99{fill:#f83086;}.cls-100{fill:#e08574;}.cls-101{fill:#ffcf9f;}.cls-102,.cls-109,.cls-110,.cls-133,.cls-161{opacity:0.2;}.cls-103,.cls-109{fill:#a17e9e;}.cls-104{fill:url(#Áåçûìÿííûé_ãðàäèåíò_127);}.cls-105{fill:url(#Áåçûìÿííûé_ãðàäèåíò_121);}.cls-106{fill:#c85d66;}.cls-107{fill:#ffd728;}.cls-108{fill:#d794a3;}.cls-110{fill:#be6ba7;}.cls-111{fill:url(#Áåçûìÿííûé_ãðàäèåíò_121-2);}.cls-112{fill:#ffff9d;}.cls-113{fill:#f6f8f4;}.cls-114{fill:#c05791;}.cls-115{fill:#eaffd4;}.cls-116{fill:#bca1ba;}.cls-117{fill:#e2e6e6;}.cls-118{fill:#ffe16b;}.cls-119{fill:#ffbd7e;}.cls-120{fill:#513f62;}.cls-121,.cls-128{fill:#5e4a6f;}.cls-122{fill:#442d49;}.cls-123{fill:#aaa4bb;}.cls-124{fill:#7f7699;}.cls-125{fill:#a99fac;}.cls-126{fill:#9b8f9e;}.cls-127{fill:#b8b0bb;}.cls-129{fill:#fef6bc;}.cls-130{fill:url(#Áåçûìÿííûé_ãðàäèåíò_81-2);}.cls-131{fill:url(#Áåçûìÿííûé_ãðàäèåíò_81-3);}.cls-132{fill:#76ada6;}.cls-134{fill:#132734;}.cls-135{fill:url(#Áåçûìÿííûé_ãðàäèåíò_151-5);}.cls-136{fill:url(#linear-gradient-3);}.cls-137{fill:url(#linear-gradient-4);}.cls-138{fill:url(#linear-gradient-5);}.cls-139{fill:url(#linear-gradient-6);}.cls-140{mask:url(#mask-2);}.cls-141{fill:url(#linear-gradient-7);}.cls-142{fill:#c18b5f;}.cls-143{fill:#3d2621;}.cls-144{fill:url(#linear-gradient-8);}.cls-145{fill:url(#linear-gradient-9);}.cls-146{fill:url(#linear-gradient-10);}.cls-147{fill:url(#linear-gradient-11);}.cls-148{fill:#323333;}.cls-149{fill:url(#linear-gradient-12);}.cls-150{fill:#4c2f27;}.cls-151{fill:#cc4d9b;}.cls-152{fill:#ef720c;}.cls-153{fill:url(#linear-gradient-13);}.cls-154{fill:url(#linear-gradient-14);}.cls-155{fill:url(#linear-gradient-15);}.cls-156{fill:#7bccf2;}.cls-157,.cls-158,.cls-162{opacity:0.3;}.cls-157{fill:url(#linear-gradient-16);}.cls-158{fill:url(#linear-gradient-17);}.cls-159{fill:url(#linear-gradient-18);}.cls-160{fill:url(#linear-gradient-19);}.cls-161{fill:url(#linear-gradient-20);}.cls-162{fill:url(#linear-gradient-21);}.cls-163{fill:url(#linear-gradient-22);}.cls-164{fill:#b9b9b9;}.cls-165{fill:#a4a4a2;}.cls-166{fill:#2f3c47;}.cls-167,.cls-168{opacity:0.52;}.cls-167{fill:url(#linear-gradient-23);}.cls-168{fill:url(#linear-gradient-24);}.cls-169{fill:#bce4ed;}.cls-170{fill:#faa106;}.cls-171{fill:#e83429;opacity:0.73;}.cls-172{fill:#f98b04;}.cls-173{filter:url(#luminosity-noclip);}</style><filter id="luminosity-noclip" x="420.39" y="-8613" width="90.23" height="32766" filterUnits="userSpaceOnUse" color-interpolation-filters="sRGB"><feFlood flood-color="#fff" result="bg"/><feBlend in="SourceGraphic" in2="bg"/></filter><mask id="mask" x="420.39" y="-8613" width="90.23" height="32766" maskUnits="userSpaceOnUse"><g class="cls-173"/></mask><linearGradient id="linear-gradient" x1="-670.58" y1="466.86" x2="-629.11" y2="395.37" gradientTransform="translate(1114.48)" gradientUnits="userSpaceOnUse"><stop offset="0" stop-color="#fff"/><stop offset="1"/></linearGradient><linearGradient id="Áåçûìÿííûé_ãðàäèåíò_513" x1="74.77" y1="344.05" x2="74.77" y2="223.89" gradientUnits="userSpaceOnUse"><stop offset="0" stop-color="#8b1356"/><stop offset="1" stop-color="#a43d72"/></linearGradient><linearGradient id="Áåçûìÿííûé_ãðàäèåíò_238" x1="73.21" y1="338.64" x2="73.21" y2="264.78" gradientUnits="userSpaceOnUse"><stop offset="0.02" stop-color="#a42423"/><stop offset="0.99" stop-color="#7f1d36"/></linearGradient><linearGradient id="Áåçûìÿííûé_ãðàäèåíò_67" x1="56.58" y1="278.11" x2="56.58" y2="269.88" gradientUnits="userSpaceOnUse"><stop offset="0" stop-color="#ffc7cb"/><stop offset="1" stop-color="#ffea9f"/></linearGradient><linearGradient id="Áåçûìÿííûé_ãðàäèåíò_67-2" x1="75.6" y1="278.11" x2="75.6" y2="263.62" xlink:href="#Áåçûìÿííûé_ãðàäèåíò_67"/><linearGradient id="Áåçûìÿííûé_ãðàäèåíò_60" x1="60.12" y1="336.21" x2="60.12" y2="276.05" gradientUnits="userSpaceOnUse"><stop offset="0" stop-color="#ffea9f"/><stop offset="1" stop-color="#ffc7cb"/></linearGradient><linearGradient id="Áåçûìÿííûé_ãðàäèåíò_60-2" x1="63.57" y1="336.93" x2="63.57" y2="271.87" xlink:href="#Áåçûìÿííûé_ãðàäèåíò_60"/><linearGradient id="Áåçûìÿííûé_ãðàäèåíò_60-3" x1="69.08" y1="336.93" x2="69.08" y2="269.13" xlink:href="#Áåçûìÿííûé_ãðàäèåíò_60"/><linearGradient id="Áåçûìÿííûé_ãðàäèåíò_60-4" x1="73.25" y1="339.05" x2="73.25" y2="268.68" xlink:href="#Áåçûìÿííûé_ãðàäèåíò_60"/><linearGradient id="Áåçûìÿííûé_ãðàäèåíò_60-5" x1="78.06" y1="336.93" x2="78.06" y2="269.52" xlink:href="#Áåçûìÿííûé_ãðàäèåíò_60"/><linearGradient id="Áåçûìÿííûé_ãðàäèåíò_60-6" x1="82.56" y1="336.93" x2="82.56" y2="272.36" xlink:href="#Áåçûìÿííûé_ãðàäèåíò_60"/><linearGradient id="Áåçûìÿííûé_ãðàäèåíò_60-7" x1="85.19" y1="336.93" x2="85.19" y2="276.05" xlink:href="#Áåçûìÿííûé_ãðàäèåíò_60"/><linearGradient id="Áåçûìÿííûé_ãðàäèåíò_67-3" x1="72.96" y1="339.57" x2="72.96" y2="331" xlink:href="#Áåçûìÿííûé_ãðàäèåíò_67"/><linearGradient id="Áåçûìÿííûé_ãðàäèåíò_67-4" x1="73.75" y1="264.78" x2="73.75" y2="221.82" xlink:href="#Áåçûìÿííûé_ãðàäèåíò_67"/><linearGradient id="Áåçûìÿííûé_ãðàäèåíò_238-2" x1="73.75" y1="227.77" x2="73.75" y2="224.85" xlink:href="#Áåçûìÿííûé_ãðàäèåíò_238"/><linearGradient id="Áåçûìÿííûé_ãðàäèåíò_513-2" x1="152.65" y1="399.76" x2="152.65" y2="279.6" xlink:href="#Áåçûìÿííûé_ãðàäèåíò_513"/><linearGradient id="Áåçûìÿííûé_ãðàäèåíò_238-3" x1="151.09" y1="394.35" x2="151.09" y2="320.49" xlink:href="#Áåçûìÿííûé_ãðàäèåíò_238"/><linearGradient id="Áåçûìÿííûé_ãðàäèåíò_67-5" x1="134.46" y1="333.81" x2="134.46" y2="325.58" xlink:href="#Áåçûìÿííûé_ãðàäèåíò_67"/><linearGradient id="Áåçûìÿííûé_ãðàäèåíò_67-6" x1="153.49" y1="333.81" x2="153.49" y2="319.32" xlink:href="#Áåçûìÿííûé_ãðàäèåíò_67"/><linearGradient id="Áåçûìÿííûé_ãðàäèåíò_60-8" x1="138.01" y1="391.91" x2="138.01" y2="331.75" xlink:href="#Áåçûìÿííûé_ãðàäèåíò_60"/><linearGradient id="Áåçûìÿííûé_ãðàäèåíò_60-9" x1="141.45" y1="392.64" x2="141.45" y2="327.57" xlink:href="#Áåçûìÿííûé_ãðàäèåíò_60"/><linearGradient id="Áåçûìÿííûé_ãðàäèåíò_60-10" x1="146.96" y1="392.64" x2="146.96" y2="324.83" xlink:href="#Áåçûìÿííûé_ãðàäèåíò_60"/><linearGradient id="Áåçûìÿííûé_ãðàäèåíò_60-11" x1="151.13" y1="394.76" x2="151.13" y2="324.38" xlink:href="#Áåçûìÿííûé_ãðàäèåíò_60"/><linearGradient id="Áåçûìÿííûé_ãðàäèåíò_60-12" x1="155.95" y1="392.64" x2="155.95" y2="325.23" xlink:href="#Áåçûìÿííûé_ãðàäèåíò_60"/><linearGradient id="Áåçûìÿííûé_ãðàäèåíò_60-13" x1="160.45" y1="392.64" x2="160.45" y2="328.07" xlink:href="#Áåçûìÿííûé_ãðàäèåíò_60"/><linearGradient id="Áåçûìÿííûé_ãðàäèåíò_60-14" x1="163.08" y1="392.64" x2="163.08" y2="331.75" xlink:href="#Áåçûìÿííûé_ãðàäèåíò_60"/><linearGradient id="Áåçûìÿííûé_ãðàäèåíò_67-7" x1="150.84" y1="395.27" x2="150.84" y2="386.71" xlink:href="#Áåçûìÿííûé_ãðàäèåíò_67"/><linearGradient id="Áåçûìÿííûé_ãðàäèåíò_67-8" x1="151.63" y1="320.49" x2="151.63" y2="277.53" xlink:href="#Áåçûìÿííûé_ãðàäèåíò_67"/><linearGradient id="Áåçûìÿííûé_ãðàäèåíò_238-4" x1="151.63" y1="283.47" x2="151.63" y2="280.55" xlink:href="#Áåçûìÿííûé_ãðàäèåíò_238"/><linearGradient id="Áåçûìÿííûé_ãðàäèåíò_513-3" x1="230.1" y1="462.1" x2="230.1" y2="341.94" xlink:href="#Áåçûìÿííûé_ãðàäèåíò_513"/><linearGradient id="Áåçûìÿííûé_ãðàäèåíò_238-5" x1="228.54" y1="456.69" x2="228.54" y2="382.83" xlink:href="#Áåçûìÿííûé_ãðàäèåíò_238"/><linearGradient id="Áåçûìÿííûé_ãðàäèåíò_67-9" x1="211.91" y1="396.15" x2="211.91" y2="387.92" xlink:href="#Áåçûìÿííûé_ãðàäèåíò_67"/><linearGradient id="Áåçûìÿííûé_ãðàäèåíò_67-10" x1="230.94" y1="396.15" x2="230.94" y2="381.66" xlink:href="#Áåçûìÿííûé_ãðàäèåíò_67"/><linearGradient id="Áåçûìÿííûé_ãðàäèåíò_60-15" x1="215.46" y1="454.25" x2="215.46" y2="394.1" xlink:href="#Áåçûìÿííûé_ãðàäèåíò_60"/><linearGradient id="Áåçûìÿííûé_ãðàäèåíò_60-16" x1="218.9" y1="454.98" x2="218.9" y2="389.91" xlink:href="#Áåçûìÿííûé_ãðàäèåíò_60"/><linearGradient id="Áåçûìÿííûé_ãðàäèåíò_60-17" x1="224.41" y1="454.98" x2="224.41" y2="387.18" xlink:href="#Áåçûìÿííûé_ãðàäèåíò_60"/><linearGradient id="Áåçûìÿííûé_ãðàäèåíò_60-18" x1="228.58" y1="457.1" x2="228.58" y2="386.72" xlink:href="#Áåçûìÿííûé_ãðàäèåíò_60"/><linearGradient id="Áåçûìÿííûé_ãðàäèåíò_60-19" x1="233.39" y1="454.98" x2="233.39" y2="387.57" xlink:href="#Áåçûìÿííûé_ãðàäèåíò_60"/><linearGradient id="Áåçûìÿííûé_ãðàäèåíò_60-20" x1="237.9" y1="454.98" x2="237.9" y2="390.41" xlink:href="#Áåçûìÿííûé_ãðàäèåíò_60"/><linearGradient id="Áåçûìÿííûé_ãðàäèåíò_60-21" x1="240.53" y1="454.98" x2="240.53" y2="394.1" xlink:href="#Áåçûìÿííûé_ãðàäèåíò_60"/><linearGradient id="Áåçûìÿííûé_ãðàäèåíò_67-11" x1="228.29" y1="457.61" x2="228.29" y2="449.05" xlink:href="#Áåçûìÿííûé_ãðàäèåíò_67"/><linearGradient id="Áåçûìÿííûé_ãðàäèåíò_67-12" x1="229.08" y1="382.83" x2="229.08" y2="339.87" xlink:href="#Áåçûìÿííûé_ãðàäèåíò_67"/><linearGradient id="Áåçûìÿííûé_ãðàäèåíò_238-6" x1="229.08" y1="345.81" x2="229.08" y2="342.89" xlink:href="#Áåçûìÿííûé_ãðàäèåíò_238"/><linearGradient id="Áåçûìÿííûé_ãðàäèåíò_265" x1="390.03" y1="335.62" x2="390.03" y2="250.54" gradientUnits="userSpaceOnUse"><stop offset="0" stop-color="#a48495"/><stop offset="1" stop-color="#8b2c8d"/></linearGradient><linearGradient id="Áåçûìÿííûé_ãðàäèåíò_59" x1="385.96" y1="332.63" x2="385.96" y2="247.55" gradientUnits="userSpaceOnUse"><stop offset="0" stop-color="#f06336"/><stop offset="1" stop-color="#ff7921"/></linearGradient><linearGradient id="Áåçûìÿííûé_ãðàäèåíò_11" x1="420.13" y1="332.63" x2="420.13" y2="247.55" gradientUnits="userSpaceOnUse"><stop offset="0.01" stop-color="#791d36"/><stop offset="0.98" stop-color="#a64021"/></linearGradient><linearGradient id="Áåçûìÿííûé_ãðàäèåíò_11-2" x1="385.45" y1="329.83" x2="385.45" y2="249.54" xlink:href="#Áåçûìÿííûé_ãðàäèåíò_11"/><linearGradient id="Áåçûìÿííûé_ãðàäèåíò_173" x1="385.98" y1="329.83" x2="385.98" y2="250.74" gradientUnits="userSpaceOnUse"><stop offset="0" stop-color="#ffc7cb"/><stop offset="1" stop-color="#ffeab8"/></linearGradient><linearGradient id="Áåçûìÿííûé_ãðàäèåíò_151" x1="385.58" y1="323.61" x2="385.58" y2="256.54" gradientUnits="userSpaceOnUse"><stop offset="0.01" stop-color="#b00244"/><stop offset="1" stop-color="#ff023e"/></linearGradient><linearGradient id="Áåçûìÿííûé_ãðàäèåíò_173-2" x1="364.54" y1="287.91" x2="394.19" y2="287.91" xlink:href="#Áåçûìÿííûé_ãðàäèåíò_173"/><linearGradient id="Áåçûìÿííûé_ãðàäèåíò_265-2" x1="385.49" y1="413.72" x2="385.49" y2="358.97" xlink:href="#Áåçûìÿííûé_ãðàäèåíò_265"/><linearGradient id="Áåçûìÿííûé_ãðàäèåíò_59-2" x1="381.98" y1="411.79" x2="381.98" y2="357.05" xlink:href="#Áåçûìÿííûé_ãðàäèåíò_59"/><linearGradient id="Áåçûìÿííûé_ãðàäèåíò_11-3" x1="411.38" y1="411.79" x2="411.38" y2="357.05" xlink:href="#Áåçûìÿííûé_ãðàäèåíò_11"/><linearGradient id="Áåçûìÿííûé_ãðàäèåíò_11-4" x1="381.54" y1="409.99" x2="381.54" y2="358.33" xlink:href="#Áåçûìÿííûé_ãðàäèåíò_11"/><linearGradient id="Áåçûìÿííûé_ãðàäèåíò_173-3" x1="382" y1="409.99" x2="382" y2="359.1" xlink:href="#Áåçûìÿííûé_ãðàäèåíò_173"/><linearGradient id="Áåçûìÿííûé_ãðàäèåíò_151-2" x1="381.65" y1="405.99" x2="381.65" y2="362.83" xlink:href="#Áåçûìÿííûé_ãðàäèåíò_151"/><linearGradient id="Áåçûìÿííûé_ãðàäèåíò_173-4" x1="363.54" y1="383.02" x2="389.06" y2="383.02" xlink:href="#Áåçûìÿííûé_ãðàäèåíò_173"/><linearGradient id="Áåçûìÿííûé_ãðàäèåíò_265-3" x1="1083.6" y1="334.32" x2="1083.6" y2="286.84" xlink:href="#Áåçûìÿííûé_ãðàäèåíò_265"/><linearGradient id="Áåçûìÿííûé_ãðàäèåíò_59-3" x1="1081.33" y1="332.65" x2="1081.33" y2="285.17" xlink:href="#Áåçûìÿííûé_ãðàäèåíò_59"/><linearGradient id="Áåçûìÿííûé_ãðàäèåíò_11-5" x1="1100.4" y1="332.65" x2="1100.4" y2="285.17" xlink:href="#Áåçûìÿííûé_ãðàäèåíò_11"/><linearGradient id="Áåçûìÿííûé_ãðàäèåíò_11-6" x1="1081.05" y1="331.09" x2="1081.05" y2="286.28" xlink:href="#Áåçûìÿííûé_ãðàäèåíò_11"/><linearGradient id="Áåçûìÿííûé_ãðàäèåíò_173-5" x1="1081.34" y1="331.09" x2="1081.34" y2="286.95" xlink:href="#Áåçûìÿííûé_ãðàäèåíò_173"/><linearGradient id="Áåçûìÿííûé_ãðàäèåíò_151-3" x1="1081.12" y1="327.62" x2="1081.12" y2="290.19" xlink:href="#Áåçûìÿííûé_ãðàäèåíò_151"/><linearGradient id="Áåçûìÿííûé_ãðàäèåíò_173-6" x1="1069.37" y1="307.7" x2="1085.93" y2="307.7" xlink:href="#Áåçûìÿííûé_ãðàäèåíò_173"/><linearGradient id="Áåçûìÿííûé_ãðàäèåíò_265-4" x1="1081.07" y1="377.91" x2="1081.07" y2="347.36" xlink:href="#Áåçûìÿííûé_ãðàäèåíò_265"/><linearGradient id="Áåçûìÿííûé_ãðàäèåíò_59-4" x1="1079.11" y1="376.84" x2="1079.11" y2="346.28" xlink:href="#Áåçûìÿííûé_ãðàäèåíò_59"/><linearGradient id="Áåçûìÿííûé_ãðàäèåíò_11-7" x1="1095.52" y1="376.84" x2="1095.52" y2="346.28" xlink:href="#Áåçûìÿííûé_ãðàäèåíò_11"/><linearGradient id="Áåçûìÿííûé_ãðàäèåíò_11-8" x1="1078.86" y1="375.83" x2="1078.86" y2="347" xlink:href="#Áåçûìÿííûé_ãðàäèåíò_11"/><linearGradient id="Áåçûìÿííûé_ãðàäèåíò_173-7" x1="1079.12" y1="375.83" x2="1079.12" y2="347.43" xlink:href="#Áåçûìÿííûé_ãðàäèåíò_173"/><linearGradient id="Áåçûìÿííûé_ãðàäèåíò_151-4" x1="1078.93" y1="373.6" x2="1078.93" y2="349.51" xlink:href="#Áåçûìÿííûé_ãðàäèåíò_151"/><linearGradient id="Áåçûìÿííûé_ãðàäèåíò_173-8" x1="1068.82" y1="360.78" x2="1083.06" y2="360.78" xlink:href="#Áåçûìÿííûé_ãðàäèåíò_173"/><linearGradient id="Áåçûìÿííûé_ãðàäèåíò_156" x1="692.94" y1="757.06" x2="692.94" y2="701.67" gradientUnits="userSpaceOnUse"><stop offset="0" stop-color="#ffc7cb"/><stop offset="1" stop-color="#ffce98"/></linearGradient><linearGradient id="Áåçûìÿííûé_ãðàäèåíò_81" x1="685.21" y1="740.43" x2="685.21" y2="706.76" gradientUnits="userSpaceOnUse"><stop offset="0" stop-color="#2c8e93"/><stop offset="1" stop-color="#1db381"/></linearGradient><radialGradient id="Áåçûìÿííûé_ãðàäèåíò_100" cx="684.84" cy="33415.7" r="111.45" gradientTransform="translate(0 -7989.13) scale(1 0.26)" gradientUnits="userSpaceOnUse"><stop offset="0.02" stop-color="#523e63"/><stop offset="0.99" stop-color="#3e1b40"/></radialGradient><linearGradient id="Áåçûìÿííûé_ãðàäèåíò_113" x1="685.21" y1="757.05" x2="685.21" y2="701.67" gradientUnits="userSpaceOnUse"><stop offset="0.01" stop-color="#ca002d"/><stop offset="1" stop-color="#d9431d"/></linearGradient><linearGradient id="linear-gradient-2" x1="745.93" y1="582.51" x2="719.77" y2="152.57" gradientUnits="userSpaceOnUse"><stop offset="0" stop-color="#ffffd4"/><stop offset="1" stop-color="#63dbff"/></linearGradient><linearGradient id="Áåçûìÿííûé_ãðàäèåíò_212" x1="753.43" y1="565.05" x2="753.43" y2="208.31" gradientUnits="userSpaceOnUse"><stop offset="0"/><stop offset="1" stop-color="#c75c2c"/></linearGradient><linearGradient id="Áåçûìÿííûé_ãðàäèåíò_212-2" x1="813.34" y1="563.09" x2="813.34" y2="208.31" xlink:href="#Áåçûìÿííûé_ãðàäèåíò_212"/><radialGradient id="Áåçûìÿííûé_ãðàäèåíò_108" cx="508.36" cy="408.25" r="184.58" gradientUnits="userSpaceOnUse"><stop offset="0" stop-color="#92754d"/><stop offset="0.14" stop-color="#846a46"/><stop offset="0.41" stop-color="#614d33"/><stop offset="0.77" stop-color="#272015"/><stop offset="1"/></radialGradient><linearGradient id="Áåçûìÿííûé_ãðàäèåíò_127" x1="900.45" y1="492.17" x2="941.87" y2="492.17" gradientUnits="userSpaceOnUse"><stop offset="0" stop-color="#ffe7bc"/><stop offset="0.85" stop-color="#f2b362"/><stop offset="0.99" stop-color="#ffdd9e"/></linearGradient><linearGradient id="Áåçûìÿííûé_ãðàäèåíò_121" x1="900.45" y1="500.33" x2="941.87" y2="500.33" gradientUnits="userSpaceOnUse"><stop offset="0" stop-color="#ffd892"/><stop offset="0.85" stop-color="#f27462"/><stop offset="0.99" stop-color="#ffac9e"/></linearGradient><linearGradient id="Áåçûìÿííûé_ãðàäèåíò_121-2" x1="564.82" y1="471.52" x2="625.1" y2="471.52" xlink:href="#Áåçûìÿííûé_ãðàäèåíò_121"/><linearGradient id="Áåçûìÿííûé_ãðàäèåíò_81-2" x1="297.76" y1="223.9" x2="355.76" y2="223.9" xlink:href="#Áåçûìÿííûé_ãðàäèåíò_81"/><linearGradient id="Áåçûìÿííûé_ãðàäèåíò_81-3" x1="1038.43" y1="223.9" x2="1096.43" y2="223.9" xlink:href="#Áåçûìÿííûé_ãðàäèåíò_81"/><linearGradient id="Áåçûìÿííûé_ãðàäèåíò_151-5" x1="298.67" y1="561.04" x2="625.41" y2="561.04" xlink:href="#Áåçûìÿííûé_ãðàäèåíò_151"/><linearGradient id="linear-gradient-3" x1="-745.26" y1="637.84" x2="-786.49" y2="525.19" gradientTransform="translate(1114.48)" gradientUnits="userSpaceOnUse"><stop offset="0" stop-color="#ffda5d"/><stop offset="0.99" stop-color="#e31a5b"/></linearGradient><linearGradient id="linear-gradient-4" x1="-524.22" y1="658.1" x2="-545.72" y2="599.34" xlink:href="#linear-gradient-3"/><linearGradient id="linear-gradient-5" x1="-646.85" y1="614.03" x2="-646.85" y2="474.26" gradientTransform="translate(1114.48)" gradientUnits="userSpaceOnUse"><stop offset="0" stop-color="#eed5e7"/><stop offset="1" stop-color="#cbe6ea"/></linearGradient><linearGradient id="linear-gradient-6" x1="-717.58" y1="455.3" x2="-716.44" y2="462.38" xlink:href="#linear-gradient-5"/><filter id="luminosity-noclip-2" x="420.39" y="373.32" width="90.23" height="95.94" filterUnits="userSpaceOnUse" color-interpolation-filters="sRGB"><feFlood flood-color="#fff" result="bg"/><feBlend in="SourceGraphic" in2="bg"/></filter><mask id="mask-2" x="420.39" y="373.32" width="90.23" height="95.94" maskUnits="userSpaceOnUse"><g class="cls-1"><path class="cls-2" d="M425.75,469.26s-9.2-7.87-3.48-17.52,9.65-18.94,19.66-15.73,17.87,3.58,18.94-2.14-3.57-29.67,5-27.88,14.29,3.21,14.29-3.93S488,382,488,382s0-10,4.65-8.58,5.36,5.36,4.29,10.36-7.15,12.87-1.08,15,6.44-11.8,8.94-8.58,8.58,3.57,4.29,8.22-4.65,4.29-5,8.58c0,0,2.14,13.94-7.87,15.37s-18.94-3.93-22.52,4.29,5,22.16-8.22,22.88-26.1-2.51-26.81,4.29a27.19,27.19,0,0,0,2.14,12.86Z"/></g></mask><linearGradient id="linear-gradient-7" x1="-670.58" y1="466.86" x2="-629.11" y2="395.37" gradientTransform="translate(1114.48)" gradientUnits="userSpaceOnUse"><stop offset="0" stop-color="#fff"/><stop offset="1" stop-color="#fff"/></linearGradient><linearGradient id="linear-gradient-8" x1="-655.42" y1="510.08" x2="-650.6" y2="539.83" xlink:href="#linear-gradient-5"/><linearGradient id="linear-gradient-9" x1="-729.31" y1="462.71" x2="-733.65" y2="479.52" gradientTransform="translate(1114.48)" gradientUnits="userSpaceOnUse"><stop offset="0" stop-color="#facbbf"/><stop offset="1" stop-color="#e16d5a"/></linearGradient><linearGradient id="linear-gradient-10" x1="-641.2" y1="544.61" x2="-591.63" y2="544.61" xlink:href="#linear-gradient-9"/><linearGradient id="linear-gradient-11" x1="-715.28" y1="423.83" x2="-716.56" y2="452.3" xlink:href="#linear-gradient-9"/><linearGradient id="linear-gradient-12" x1="-724.97" y1="416.92" x2="-733.49" y2="465.46" gradientTransform="translate(1114.48)" gradientUnits="userSpaceOnUse"><stop offset="0" stop-color="#865da6"/><stop offset="1" stop-color="#242258"/></linearGradient><linearGradient id="linear-gradient-13" x1="-699.52" y1="524.48" x2="-619.83" y2="524.48" gradientTransform="translate(1114.48)" gradientUnits="userSpaceOnUse"><stop offset="0.01" stop-color="#fff0a1"/><stop offset="1" stop-color="#eb4a95"/></linearGradient><linearGradient id="linear-gradient-14" x1="341.31" y1="519.75" x2="435.66" y2="519.75" gradientTransform="matrix(1, 0, 0, 1, 0, 0)" xlink:href="#linear-gradient-9"/><linearGradient id="linear-gradient-15" x1="-689.47" y1="516.76" x2="-673.72" y2="516.76" xlink:href="#linear-gradient-9"/><linearGradient id="linear-gradient-16" x1="-462.56" y1="599.06" x2="-557.59" y2="532.95" gradientTransform="translate(1114.48)" gradientUnits="userSpaceOnUse"><stop offset="0" stop-color="#374b9a"/><stop offset="1" stop-color="#430739"/></linearGradient><linearGradient id="linear-gradient-17" x1="-541.21" y1="555.83" x2="-429.73" y2="647.84" xlink:href="#linear-gradient-16"/><linearGradient id="linear-gradient-18" x1="-634.4" y1="599.89" x2="-631.54" y2="496.59" xlink:href="#linear-gradient-5"/><linearGradient id="linear-gradient-19" x1="2204.05" y1="484.73" x2="2203.11" y2="514.43" gradientTransform="matrix(-1, 0, 0, 1, 2769.15, 0)" xlink:href="#linear-gradient-16"/><linearGradient id="linear-gradient-20" x1="-752.56" y1="488.83" x2="-707.33" y2="488.83" xlink:href="#linear-gradient-13"/><linearGradient id="linear-gradient-21" x1="-671.62" y1="456.61" x2="-638.77" y2="602.77" xlink:href="#linear-gradient-5"/><linearGradient id="linear-gradient-22" x1="-618.87" y1="474.39" x2="-616.82" y2="483.5" xlink:href="#linear-gradient-5"/><linearGradient id="linear-gradient-23" x1="-443.74" y1="648.68" x2="-423.05" y2="648.68" xlink:href="#linear-gradient-9"/><linearGradient id="linear-gradient-24" x1="-423.6" y1="590.17" x2="-410.76" y2="590.17" xlink:href="#linear-gradient-9"/></defs><title>productive and cozy</title><g class="cls-3"><g id="Layer_1" data-name="Layer 1"><rect class="cls-4" width="1190.55" height="841.89"/></g><g id="Layer_2" data-name="Layer 2"><g class="cls-5"><polygon class="cls-6" points="122.96 762.06 289.78 702.06 189.05 750.72 122.96 762.06"/><polygon class="cls-7" points="260.89 702.06 42.6 780.9 2 780.9 42.6 732.06 152.63 702.06 176.75 702.06 94.97 737.39 161.45 719.71 180.13 720.89 260.89 702.06"/><polygon class="cls-6" points="1124.45 165.45 1124.45 680.14 1139.35 147.41 1124.45 165.45"/><polygon class="cls-6" points="326.76 129.09 1124.45 129.09 392.1 136.03 326.76 129.09"/></g><polygon class="cls-6" points="290.48 113.38 73.62 50.4 1149.55 50.4 1083.65 115.5 1025.65 115.5 867.49 70.91 890.66 115.5 859.28 115.5 636.48 70.91 606.21 103.69 588.55 103.69 386.34 73.66 534.61 122.3 500.29 122.3 290.48 113.38"/><polygon class="cls-6" points="290.48 129.09 290.48 696.03 305.41 129.09 290.48 129.09"/><polygon class="cls-6" points="1102.48 696.03 305.41 696.03 1108.76 674.09 1102.48 696.03"/><polygon class="cls-6" points="180.13 782.86 321.82 708.34 360.96 708.34 321.82 738.04 332.32 738.04 407.35 702.06 350.46 738.04 360.96 738.04 435.03 704.24 444.99 738.04 455.49 738.04 455.49 705.91 464.88 705.91 473.63 738.04 484.13 738.04 484.13 702.06 518.26 702.06 527.58 738.04 534.61 738.04 556.27 705.91 610.96 702.06 627.91 738.04 634.94 738.04 623.48 702.06 642.91 702.06 650.48 738.04 657.51 738.04 662.17 702.06 733.66 702.06 750.82 738.04 757.85 738.04 744.58 705.91 936.71 705.91 1040.5 767.17 989.9 715.73 1093.94 712.91 1131.9 791.49 556.27 791.49 576.11 775.02 180.13 782.86"/></g><g id="Layer_8" data-name="Layer 8"><path class="cls-8" d="M102.16,306.2c0-10.64-3.26-20.23-8.45-27l.81-.76-2-2.58-.25.48-2.1-2-.1-1.2L87,271.45l-.59.68-2.32-1.37-.4-.94-2.75-1-.71.48-2-.48-.31-.65s-.59,0-1.52,0h0l-1.24-36.63,1.07-2.74-1.84-4.84-1.69,4.5,1.23,3.25,1.59,36.48a26.12,26.12,0,0,0-4.38.54l0,.61-1.49.5a18.62,18.62,0,0,0-2.42.71l-.7-.41-5.25,3.09.15.48c-.67.49-1.32,1-2,1.61l-.3-.89-2.72,2.75.38.86c-5.79,6.78-9.47,16.9-9.47,28.23,0,15.77,7.14,29.22,17.17,34.52l.92.7.27-.12a21.17,21.17,0,0,0,2.55,1l.43.31.4-.08c.33.09.65.17,1,.24l.15.4,2.23.41,3.9.51.18-.51,3.54-.41.27.41,3.11-.84v-.85l1.39-.43v.68L87.5,341l-.24-1.64C96.08,333.33,102.16,320.75,102.16,306.2ZM72.8,340V273.62l-2.84.74,1.23,65.32-1.11-.26-.18-.06-1.27-.65-2-62.36,3.36-2,4.57-1.2,5.52.85L78,339.67l-.52.1-1.1.28.73-66.43-2.54-.46-.48,67Zm9.1-1.53v-.27l-1.72,0,2.57-62.14,1.87,1.26.8-.51-3.36,61.54ZM63,278.48l4.06,59.44-.29-.15-1.12-.83-4.38-56.4L60.76,279a25.38,25.38,0,0,1,1.85-1.75Zm-4.15,4.11,4.84,52.9-.09.53c-7.57-5.8-12.7-17-12.7-29.82,0-9.64,2.9-18.34,7.54-24.54Zm25.05,54.79,3.8-57.24.91.93-3.47,55.49C84.76,336.84,84.35,337.12,83.93,337.38Zm6.2-54.79,1-.9c4.63,6.2,7.52,14.88,7.52,24.51,0,12.26-4.68,23-11.69,29Z"/><path class="cls-9" d="M71.72,264.78c-14.71,0-26.64,16.53-26.64,36.93S57,338.64,71.72,338.64s26.65-16.53,26.65-36.93S86.44,264.78,71.72,264.78Zm0,71c-13.57,0-24.57-15.26-24.57-34.07s11-34.06,24.57-34.06S96.3,282.9,96.3,301.71,85.3,335.78,71.72,335.78Z"/><path class="cls-10" d="M73.21,264.78c-14.72,0-26.65,16.53-26.65,36.93s11.93,36.93,26.65,36.93,26.64-16.53,26.64-36.93S87.92,264.78,73.21,264.78Zm0,71c-13.58,0-24.58-15.26-24.58-34.07s11-34.06,24.58-34.06,24.57,15.25,24.57,34.06S86.78,335.78,73.21,335.78Z"/><polygon class="cls-11" points="54.17 272.62 56.89 269.88 58.99 276.05 56.58 278.11 54.17 272.62"/><path class="cls-12" d="M59,268.68,60.72,274l6.93-4.11,4.58-1.2,7.8,1.2v1.45l2.29,1.55.8-.52L85.53,274l-.55,1.2,2.84,2.92,4.4-4.12-2-2.57-.25.47-2.11-2-.09-1.2L84.7,267l-.59.69-2.32-1.38-.4-.94-2.75-1-.72.48-2-.48-.31-.64a25.92,25.92,0,0,0-6.77.51l0,.61s-3,1-3.87,1.24l-.74-.43Z"/><polygon class="cls-13" points="56.58 278.11 61.79 335.09 63.67 336.21 58.99 276.05 56.58 278.11"/><polygon class="cls-14" points="60.72 273.99 65.02 336.93 66.42 336.93 64.3 271.87 60.72 273.99"/><polygon class="cls-15" points="67.65 269.88 68.92 336.93 70.5 336.93 70.5 269.13 67.65 269.88"/><polygon class="cls-16" points="72.23 268.68 71.72 338.58 74 339.05 74.77 269.13 72.23 268.68"/><polygon class="cls-17" points="77.75 269.52 75.6 336.93 77.75 336.93 80.52 269.88 77.75 269.52"/><polygon class="cls-18" points="83.12 272.36 79.59 336.93 81.36 336.93 85.53 273.99 83.12 272.36"/><polygon class="cls-19" points="87.82 278.11 84.34 335.27 82.56 336.93 86.37 276.05 87.82 278.11"/><polygon class="cls-20" points="61.42 331 60.72 335.07 63.17 336.93 64.19 336.48 66.42 338.09 67.65 337.84 67.95 338.64 70.17 339.05 74.07 339.57 74.26 339.05 77.8 338.64 78.06 339.05 81.17 338.22 81.17 337.36 82.56 336.93 82.56 337.62 85.19 336.5 84.54 331.94 82.56 332.81 80.99 333.59 79.59 334.32 79.59 333.71 77.52 333.76 77.37 334.83 75.14 335.29 73.21 335.78 70.07 335.47 67.65 334.9 64.5 333.29 61.42 331"/><polygon class="cls-21" points="73.21 264.78 73.21 229.57 71.98 226.32 73.67 221.82 75.51 226.66 74.44 229.4 74.09 263.62 73.21 264.78"/><ellipse class="cls-22" cx="73.75" cy="226.31" rx="1.05" ry="1.46"/><path class="cls-23" d="M180,361.9c0-10.64-3.25-20.22-8.45-27l.81-.76-2-2.57-.24.47-2.11-2-.09-1.2-3.09-1.72-.59.69L162,326.47l-.4-1-2.76-1-.71.48-2-.48-.31-.64s-.58-.05-1.51,0h0L153,287.18l1.06-2.75-1.83-4.83-1.69,4.49,1.22,3.26,1.59,36.48a24.8,24.8,0,0,0-4.37.53l0,.61-1.49.5a21,21,0,0,0-2.43.71l-.69-.4-5.26,3.09.15.47c-.67.5-1.32,1-2,1.61l-.3-.88-2.73,2.74.39.87c-5.79,6.77-9.47,16.9-9.47,28.22,0,15.77,7.13,29.23,17.17,34.52l.92.7.26-.12a20.16,20.16,0,0,0,2.55,1l.43.32.41-.08,1,.23.15.4,2.22.41,3.9.52.19-.52,3.54-.41.26.41,3.11-.83v-.86l1.39-.43v.69l2.63-1.12-.23-1.64C174,389,180,376.45,180,361.9Zm-29.35,33.81V329.32l-2.85.75,1.24,65.32-1.11-.27-.18-.05-1.27-.66-2-62.35,3.35-2,4.58-1.2,5.51.85-2.08,65.65-.52.11-1.1.28.73-66.44-2.54-.45-.49,67Zm9.09-1.54v-.26l-1.71,0,2.57-62.13,1.86,1.26.81-.52L160,394.09Zm-18.87-60L145,393.62l-.28-.14-1.12-.83-4.39-56.41-.54-1.58a23.4,23.4,0,0,1,1.86-1.75Zm-4.14,4.12,4.84,52.89-.09.54c-7.58-5.81-12.7-17-12.7-29.83,0-9.64,2.89-18.34,7.54-24.54Zm25,54.78,3.8-57.24.91.93-3.46,55.49C162.65,392.55,162.23,392.82,161.81,393.08ZM168,338.3l1-.9c4.64,6.19,7.52,14.88,7.52,24.5,0,12.26-4.68,23-11.69,29Z"/><path class="cls-9" d="M149.61,320.49C134.89,320.49,123,337,123,357.42s11.93,36.93,26.65,36.93,26.65-16.54,26.65-36.93S164.33,320.49,149.61,320.49Zm0,71C136,391.48,125,376.23,125,357.42s11-34.07,24.58-34.07,24.58,15.25,24.58,34.07S163.18,391.48,149.61,391.48Z"/><path class="cls-24" d="M151.09,320.49c-14.72,0-26.65,16.53-26.65,36.93s11.93,36.93,26.65,36.93,26.65-16.54,26.65-36.93S165.81,320.49,151.09,320.49Zm0,71c-13.57,0-24.58-15.25-24.58-34.06s11-34.07,24.58-34.07,24.58,15.25,24.58,34.07S164.66,391.48,151.09,391.48Z"/><polygon class="cls-25" points="132.05 328.32 134.77 325.58 136.88 331.75 134.46 333.81 132.05 328.32"/><path class="cls-26" d="M136.88,324.38l1.73,5.32,6.93-4.12,4.58-1.2,7.79,1.2V327l2.29,1.54.81-.51,2.41,1.63-.56,1.2,2.85,2.91,4.39-4.11-2-2.58-.25.48-2.1-2-.09-1.2-3.1-1.71-.58.68L159.68,322l-.41-.94-2.75-1-.71.48-2-.48-.31-.65a26.27,26.27,0,0,0-6.78.52l0,.61s-3,1-3.86,1.23l-.74-.43Z"/><polygon class="cls-27" points="134.46 333.81 139.68 390.8 141.55 391.91 136.88 331.75 134.46 333.81"/><polygon class="cls-28" points="138.61 329.7 142.91 392.64 144.3 392.64 142.19 327.57 138.61 329.7"/><polygon class="cls-29" points="145.54 325.58 146.81 392.64 148.38 392.64 148.38 324.83 145.54 325.58"/><polygon class="cls-30" points="150.12 324.38 149.61 394.29 151.89 394.76 152.65 324.83 150.12 324.38"/><polygon class="cls-31" points="155.63 325.23 153.49 392.64 155.63 392.64 158.41 325.58 155.63 325.23"/><polygon class="cls-32" points="161 328.07 157.48 392.64 159.24 392.64 163.42 329.7 161 328.07"/><polygon class="cls-33" points="165.71 333.81 162.22 390.98 160.45 392.64 164.25 331.75 165.71 333.81"/><polygon class="cls-34" points="139.3 386.71 138.61 390.77 141.05 392.64 142.08 392.18 144.3 393.79 145.54 393.54 145.83 394.35 148.06 394.76 151.96 395.27 152.14 394.76 155.69 394.35 155.95 394.76 159.06 393.92 159.06 393.06 160.45 392.64 160.45 393.32 163.08 392.21 162.42 387.65 160.45 388.52 158.87 389.29 157.48 390.02 157.48 389.42 155.41 389.46 155.25 390.54 153.02 390.99 151.09 391.48 147.95 391.18 145.54 390.61 142.38 388.99 139.3 386.71"/><polygon class="cls-35" points="151.09 320.49 151.09 285.28 149.87 282.02 151.56 277.53 153.4 282.36 152.33 285.11 151.97 319.32 151.09 320.49"/><ellipse class="cls-36" cx="151.63" cy="282.01" rx="1.05" ry="1.46"/><path class="cls-37" d="M257.49,424.24c0-10.64-3.25-20.22-8.45-27l.81-.76-2-2.57-.25.47-2.1-2-.09-1.2-3.1-1.72-.58.69-2.32-1.37-.41-.95-2.75-1-.71.48-2-.48-.31-.64s-.58,0-1.52,0h0l-1.23-36.63,1.06-2.74-1.84-4.84L228,346.43l1.22,3.26,1.59,36.48a25.12,25.12,0,0,0-4.38.54l0,.6-1.5.5a20.33,20.33,0,0,0-2.42.71l-.69-.4-5.26,3.09.15.47a24.61,24.61,0,0,0-1.95,1.62l-.31-.89-2.72,2.74.38.87c-5.79,6.77-9.47,16.9-9.47,28.22,0,15.78,7.14,29.23,17.18,34.52l.91.7.27-.12a21.22,21.22,0,0,0,2.55,1l.43.31.4-.08c.33.08.66.17,1,.23l.14.41,2.23.41,3.9.51.18-.51,3.55-.41.26.41,3.11-.84v-.86l1.39-.43v.69l2.63-1.11-.24-1.65C251.41,451.37,257.49,438.79,257.49,424.24Zm-29.36,33.81V391.66l-2.84.75,1.23,65.32-1.11-.26-.18-.06-1.27-.65-2-62.36,3.35-2,4.58-1.2,5.51.85-2.09,65.65-.52.11-1.09.28.72-66.44-2.53-.45-.49,67Zm9.1-1.54v-.26l-1.72,0,2.58-62.13,1.86,1.26.81-.51-3.37,61.54Zm-18.87-60L222.42,456l-.29-.15L221,455l-4.38-56.41-.54-1.58c.6-.62,1.22-1.21,1.85-1.75Zm-4.15,4.12,4.84,52.9-.09.53c-7.57-5.81-12.7-17-12.7-29.83,0-9.64,2.9-18.34,7.54-24.53Zm25,54.78,3.8-57.24.91.94L240.5,454.6C240.1,454.89,239.68,455.17,239.26,455.42Zm6.2-54.78,1-.9c4.63,6.19,7.52,14.88,7.52,24.5,0,12.27-4.68,23-11.69,29Z"/><path class="cls-9" d="M227.06,382.83c-14.72,0-26.65,16.53-26.65,36.93s11.93,36.93,26.65,36.93,26.64-16.53,26.64-36.93S241.77,382.83,227.06,382.83Zm0,71c-13.58,0-24.58-15.25-24.58-34.06s11-34.07,24.58-34.07,24.57,15.26,24.57,34.07S240.63,453.82,227.06,453.82Z"/><path class="cls-38" d="M228.54,382.83c-14.72,0-26.65,16.53-26.65,36.93s11.93,36.93,26.65,36.93,26.64-16.54,26.64-36.93S243.25,382.83,228.54,382.83Zm0,71C215,453.82,204,438.57,204,419.76s11-34.07,24.58-34.07,24.58,15.26,24.58,34.07S242.11,453.82,228.54,453.82Z"/><polygon class="cls-39" points="209.5 390.67 212.22 387.92 214.32 394.1 211.91 396.15 209.5 390.67"/><path class="cls-40" d="M214.32,386.72l1.74,5.32,6.93-4.12,4.57-1.2,7.8,1.2v1.46l2.29,1.54.8-.51,2.42,1.63-.56,1.2,2.84,2.91,4.4-4.11-2-2.57-.25.47-2.1-2-.1-1.2L240,385l-.59.68-2.32-1.37-.4-.94-2.75-1-.71.48-2-.48-.3-.64a26,26,0,0,0-6.78.51l0,.61s-3,1-3.86,1.23l-.75-.42Z"/><polygon class="cls-41" points="211.91 396.15 217.13 453.14 219 454.25 214.32 394.1 211.91 396.15"/><polygon class="cls-42" points="216.06 392.04 220.36 454.98 221.75 454.98 219.63 389.91 216.06 392.04"/><polygon class="cls-43" points="222.99 387.92 224.25 454.98 225.83 454.98 225.83 387.18 222.99 387.92"/><polygon class="cls-44" points="227.56 386.72 227.06 456.63 229.34 457.1 230.1 387.18 227.56 386.72"/><polygon class="cls-45" points="233.08 387.57 230.94 454.98 233.08 454.98 235.85 387.92 233.08 387.57"/><polygon class="cls-46" points="238.45 390.41 234.93 454.98 236.69 454.98 240.87 392.04 238.45 390.41"/><polygon class="cls-47" points="243.16 396.15 239.67 453.32 237.9 454.98 241.7 394.1 243.16 396.15"/><polygon class="cls-48" points="216.75 449.05 216.06 453.11 218.5 454.98 219.53 454.52 221.75 456.14 222.99 455.89 223.28 456.69 225.51 457.1 229.4 457.62 229.59 457.1 233.13 456.69 233.4 457.1 236.5 456.26 236.5 455.41 237.9 454.98 237.9 455.66 240.53 454.55 239.87 449.99 237.9 450.86 236.32 451.63 234.93 452.36 234.93 451.76 232.85 451.81 232.7 452.88 230.47 453.33 228.54 453.82 225.4 453.52 222.99 452.95 219.83 451.33 216.75 449.05"/><polygon class="cls-49" points="228.54 382.83 228.54 347.62 227.32 344.36 229 339.87 230.84 344.71 229.78 347.45 229.42 381.67 228.54 382.83"/><ellipse class="cls-50" cx="229.08" cy="344.35" rx="1.05" ry="1.46"/></g><g id="Layer_10" data-name="Layer 10"><polygon class="cls-51" points="355.52 335.27 354.76 250.54 425.3 250.54 421.86 335.62 355.52 335.27"/><polygon class="cls-52" points="351.44 332.27 350.69 247.55 421.22 247.55 417.79 332.63 351.44 332.27"/><polygon class="cls-53" points="421.22 247.55 422.47 248.05 419.7 332.63 417.79 332.63 421.22 247.55"/><polygon class="cls-54" points="354.26 329.83 353.36 249.54 417.54 249.54 417.54 250.74 354.42 250.88 355 329.83 354.26 329.83"/><polygon class="cls-55" points="354.42 250.88 355 329.83 415.5 329.83 417.54 250.74 354.42 250.88"/><polygon class="cls-56" points="361.59 323.31 360.85 257.27 410.31 256.54 408.58 323.61 361.59 323.31"/><path class="cls-57" d="M372.33,296.19c6.49,0-5.73-21.47-1.8-24.74s21.85,3.78,23.56,13.35-19.41,10.45-20.26,11.39,4.31-.44,7.33,1.67-4.84,8.35-10.63,7.18-7.72-12.35-4.32-13.16S370.82,296.19,372.33,296.19Z"/><path class="cls-58" d="M371.77,294.8c1.19.51,2.35-2.13,1.68-4.43s-4.16-5.23-5.74-4S369.84,294,371.77,294.8Z"/><path class="cls-58" d="M369.92,284.47c-.38.49.51,2.5,1.79,2.54s.23-2.54-.28-2.82A1.26,1.26,0,0,0,369.92,284.47Z"/><path class="cls-58" d="M383.66,296.14c.22-1,5.9-3.94,11-2.8s-1.48,7.06-5.49,6.63S383.16,298.32,383.66,296.14Z"/><path class="cls-59" d="M391.15,268c-1.69,3.67,3,19.29,9.94,17.43S406.71,265.86,405,265,391.93,266.26,391.15,268Z"/><path class="cls-59" d="M390.13,268.32c1.6-1.74-6.62-4.94-7.9-2.79s3.48,5.79,5.07,6.43S390.13,268.32,390.13,268.32Z"/><polygon class="cls-60" points="353.36 249.54 354.42 254.92 355.5 252.23 417.48 252.92 417.48 248.81 353.36 249.54"/><polygon class="cls-61" points="355.79 413.49 355.13 358.97 415.83 358.97 412.88 413.72 355.79 413.49"/><polygon class="cls-62" points="352.28 411.56 351.63 357.05 412.33 357.05 409.37 411.79 352.28 411.56"/><polygon class="cls-63" points="412.33 357.05 413.4 357.37 411.02 411.79 409.37 411.79 412.33 357.05"/><polygon class="cls-64" points="354.7 409.99 353.93 358.33 409.16 358.33 409.16 359.1 354.84 359.19 355.34 409.99 354.7 409.99"/><polygon class="cls-65" points="354.84 359.19 355.34 409.99 407.4 409.99 409.16 359.1 354.84 359.19"/><polygon class="cls-66" points="361 405.8 360.37 363.3 402.93 362.83 401.45 405.99 361 405.8"/><path class="cls-67" d="M370.25,388.34c5.58,0-4.93-13.81-1.55-15.91S387.51,374.86,389,381s-16.71,6.72-17.44,7.32,3.71-.28,6.31,1.08-4.17,5.37-9.15,4.62-6.64-7.94-3.72-8.47S369,388.34,370.25,388.34Z"/><path class="cls-58" d="M369.77,387.45c1,.33,2-1.37,1.44-2.85s-3.58-3.36-4.94-2.6S368.11,386.91,369.77,387.45Z"/><path class="cls-58" d="M368.18,380.8c-.33.32.44,1.61,1.53,1.64s.21-1.64-.23-1.81A1.35,1.35,0,0,0,368.18,380.8Z"/><path class="cls-58" d="M380,388.31c.19-.63,5.08-2.53,9.45-1.8s-1.28,4.54-4.73,4.27S379.57,389.72,380,388.31Z"/><path class="cls-59" d="M386.45,370.18c-1.46,2.36,2.55,12.4,8.55,11.21s4.83-12.56,3.33-13.11S387.12,369.08,386.45,370.18Z"/><path class="cls-59" d="M385.57,370.41c1.38-1.12-5.7-3.18-6.8-1.79s3,3.72,4.36,4.13S385.57,370.41,385.57,370.41Z"/><polygon class="cls-60" points="353.93 358.33 354.84 361.79 355.77 360.06 409.11 360.5 409.11 357.86 353.93 358.33"/><polygon class="cls-68" points="1064.34 334.13 1063.92 286.84 1103.29 286.84 1101.37 334.32 1064.34 334.13"/><polygon class="cls-69" points="1062.07 332.46 1061.64 285.17 1101.01 285.17 1099.09 332.65 1062.07 332.46"/><polygon class="cls-70" points="1101.01 285.17 1101.71 285.45 1100.16 332.65 1099.09 332.65 1101.01 285.17"/><polygon class="cls-71" points="1063.64 331.09 1063.14 286.28 1098.96 286.28 1098.96 286.95 1063.73 287.03 1064.05 331.09 1063.64 331.09"/><polygon class="cls-72" points="1063.73 287.03 1064.05 331.09 1097.82 331.09 1098.96 286.95 1063.73 287.03"/><polygon class="cls-73" points="1067.73 327.45 1067.32 290.59 1094.92 290.19 1093.96 327.62 1067.73 327.45"/><path class="cls-74" d="M1073.72,312.32c3.63,0-3.19-12-1-13.81s12.2,2.11,13.15,7.45-10.84,5.84-11.31,6.36,2.41-.25,4.09.93-2.7,4.66-5.93,4-4.31-6.89-2.41-7.35S1072.88,312.32,1073.72,312.32Z"/><path class="cls-58" d="M1073.41,311.54c.66.28,1.31-1.19.94-2.47s-2.32-2.92-3.21-2.25S1072.33,311.07,1073.41,311.54Z"/><path class="cls-58" d="M1072.38,305.78c-.22.27.28,1.39,1,1.41s.13-1.41-.16-1.57A.69.69,0,0,0,1072.38,305.78Z"/><path class="cls-58" d="M1080,312.29c.13-.55,3.3-2.2,6.13-1.56s-.82,3.93-3.06,3.7S1079.77,313.51,1080,312.29Z"/><path class="cls-59" d="M1084.23,296.56c-1,2,1.65,10.76,5.54,9.72s3.14-10.89,2.17-11.37S1084.66,295.61,1084.23,296.56Z"/><path class="cls-59" d="M1083.66,296.76c.89-1-3.7-2.76-4.41-1.56s1.94,3.23,2.83,3.59S1083.66,296.76,1083.66,296.76Z"/><polygon class="cls-60" points="1063.14 286.28 1063.73 289.28 1064.33 287.78 1098.93 288.16 1098.93 285.87 1063.14 286.28"/><polygon class="cls-75" points="1064.49 377.79 1064.13 347.36 1098.01 347.36 1096.35 377.91 1064.49 377.79"/><polygon class="cls-76" points="1062.53 376.71 1062.17 346.28 1096.05 346.28 1094.39 376.84 1062.53 376.71"/><polygon class="cls-77" points="1096.05 346.28 1096.65 346.46 1095.32 376.84 1094.39 376.84 1096.05 346.28"/><polygon class="cls-78" points="1063.88 375.83 1063.45 347 1094.28 347 1094.28 347.43 1063.96 347.48 1064.24 375.83 1063.88 375.83"/><polygon class="cls-79" points="1063.96 347.48 1064.24 375.83 1093.3 375.83 1094.28 347.43 1063.96 347.48"/><polygon class="cls-80" points="1067.4 373.49 1067.05 349.77 1090.8 349.51 1089.97 373.6 1067.4 373.49"/><path class="cls-81" d="M1072.56,363.75c3.12,0-2.75-7.71-.86-8.88s10.49,1.36,11.32,4.79-9.33,3.76-9.74,4.09,2.07-.16,3.52.6-2.32,3-5.1,2.58-3.71-4.43-2.08-4.73S1071.84,363.75,1072.56,363.75Z"/><path class="cls-58" d="M1072.29,363.25c.57.19,1.13-.76.81-1.59s-2-1.87-2.76-1.45S1071.37,363,1072.29,363.25Z"/><path class="cls-58" d="M1071.41,359.54c-.19.18.24.9.85.91s.12-.91-.13-1A.74.74,0,0,0,1071.41,359.54Z"/><path class="cls-58" d="M1078,363.73c.11-.35,2.84-1.41,5.28-1s-.71,2.53-2.64,2.38S1077.76,364.52,1078,363.73Z"/><path class="cls-59" d="M1081.6,353.61c-.81,1.32,1.43,6.93,4.78,6.26s2.69-7,1.86-7.32S1082,353,1081.6,353.61Z"/><path class="cls-59" d="M1081.11,353.74c.77-.62-3.18-1.77-3.79-1s1.67,2.08,2.43,2.31S1081.11,353.74,1081.11,353.74Z"/><polygon class="cls-60" points="1063.45 347 1063.96 348.93 1064.48 347.96 1094.25 348.21 1094.25 346.74 1063.45 347"/></g><g id="Layer_7" data-name="Layer 7"><ellipse class="cls-82" cx="692.94" cy="729.36" rx="386.69" ry="27.7"/><path class="cls-83" d="M685.21,706.76c-107.49,0-194.63,7.54-194.63,16.82s87.14,16.85,194.63,16.85,194.63-7.54,194.63-16.85S792.71,706.76,685.21,706.76Zm0,27.29c-81.55,0-147.68-3.4-147.68-10.47s66.13-12.76,147.68-12.76,147.68,5.72,147.68,12.76S766.78,734.05,685.21,734.05Z"/><path class="cls-84" d="M832.89,723.58c0,7.07-66.11,10.47-147.68,10.47s-147.68-3.4-147.68-10.47,66.13-12.76,147.68-12.76S832.89,716.54,832.89,723.58Z"/><path class="cls-85" d="M685.21,701.67c-176.75,0-320,12.4-320,27.69s143.29,27.69,320,27.69,320-12.39,320-27.69S862,701.67,685.21,701.67Zm0,50.68c-170.28,0-308.32-8.26-308.32-23s138-26.68,308.32-26.68,308.32,12,308.32,26.68S855.49,752.35,685.21,752.35Z"/></g><g id="Layer_6" data-name="Layer 6"><rect class="cls-86" x="485.32" y="166.83" width="495.06" height="401.42"/><path class="cls-87" d="M624.25,251s-15.9-2-26.43-4.35a157.11,157.11,0,0,0-21.26-3.07s12.09.52,12.09,2.8-33.21,1.46-44.52,1.46S497.35,253,497.35,253s46.4.08,58.47-1.58,23,.66,39.6.66S624.25,251,624.25,251Z"/><path class="cls-88" d="M624.25,251s-27.75.24-40.48-1.09-43.09,0-43.09,0l3.06,1.11S502,253,497.35,253h41.51c9.27,0,13.94-1.89,19.66-1.89s30,1.89,40.71,1.89A229.19,229.19,0,0,0,624.25,251Z"/><path class="cls-87" d="M576.56,243.61H560.8A19.18,19.18,0,0,1,576.56,243.61Z"/><path class="cls-87" d="M599.18,247l4.52,1.31s.64,0,2,0c3.5-.11,11.77-.52,26.57-2,20.67-2,50.73,2,61.25,2A209.05,209.05,0,0,0,714.92,247H715l-18.16-1.29s8.64-2.09,15.19-2.09,28.44-.86,28.44-.86l-.71-4.29s-36.92-1.34-53.77,3.44-56.71-1.33-61.56-1.33S599.18,247,599.18,247Z"/><path class="cls-88" d="M740.48,240.59s-11.11,1.3-29.85,1.84-26.44,2-26.44,2l13.58,1.35A59,59,0,0,1,712.83,244c9.12,0,28.15-.85,28.15-.85Z"/><path class="cls-88" d="M605.73,248.24c3.5-.11,11.77-.52,26.57-2,20.67-2,50.73,2,61.25,2A209.05,209.05,0,0,0,714.92,247c-1.25.09-16.47,1.08-24.51,0-8.39-1.13-41.68-3.38-53-3.38S605.73,248.24,605.73,248.24Z"/><path class="cls-88" d="M644.66,244.44s-15.26-1.91-22.52-1.26l6.13,1.26Z"/><path class="cls-88" d="M603.71,252s-4.81-3.69-10.11-3.69c0,0,5,1.86,6.79,3.77A2.07,2.07,0,0,0,603.71,252Z"/><path class="cls-87" d="M900,258.88s-15.89-2-26.42-4.35a157.11,157.11,0,0,0-21.26-3.07s12.09.52,12.09,2.8-33.21,1.46-44.53,1.46-46.77,5.08-46.77,5.08,46.4.08,58.47-1.58,23,.66,39.6.66S900,258.88,900,258.88Z"/><path class="cls-88" d="M900,258.88s-27.75.24-40.47-1.09-43.09,0-43.09,0l3.06,1.11s-41.72,1.9-46.39,1.9h41.51c9.26,0,13.93-1.89,19.66-1.89s30,1.89,40.71,1.89A228.89,228.89,0,0,0,900,258.88Z"/><path class="cls-87" d="M852.33,251.46H836.57A19.18,19.18,0,0,1,852.33,251.46Z"/><path class="cls-87" d="M875,254.82l4.52,1.31s.64,0,2,0c3.5-.11,11.77-.52,26.57-2,20.67-2,50.73,2,61.25,2a209.29,209.29,0,0,0,21.37-1.29h.08l-18.16-1.29s8.64-2.09,15.2-2.09,28.43-.86,28.43-.86l-.7-4.29s-36.92-1.34-53.77,3.44-56.72-1.33-61.56-1.33S875,254.82,875,254.82Z"/><path class="cls-88" d="M1016.24,248.44s-11.1,1.3-29.84,1.84-26.44,2-26.44,2l13.58,1.35a59,59,0,0,1,15.05-1.73c9.13,0,28.16-.85,28.16-.85Z"/><path class="cls-88" d="M881.5,256.09c3.5-.11,11.77-.52,26.57-2,20.67-2,50.73,2,61.25,2a209.29,209.29,0,0,0,21.37-1.29c-1.25.09-16.48,1.08-24.51,0-8.39-1.13-41.68-3.38-53-3.38S881.5,256.09,881.5,256.09Z"/><path class="cls-88" d="M920.43,252.29s-15.26-1.91-22.52-1.26l6.13,1.26Z"/><path class="cls-88" d="M879.48,259.82s-4.81-3.69-10.11-3.69c0,0,5,1.86,6.78,3.77A2.08,2.08,0,0,0,879.48,259.82Z"/><path class="cls-87" d="M691.6,167.21s18,12.5,27.72,11.07,34.18,3.85,47.8,6.17a81.73,81.73,0,0,1,22.43,7l-6.3,2.24s7.27,2.75,21.87,5.54,43.18,3.21,44.84,4.57,2.41,6.4,4.34,8c1.1.91,8.89,1.5,15.34,1.83h.06c4.8.25,8.86.36,8.86.36s-10.34-2.49-15.57-4.7a72.77,72.77,0,0,1-11.43-6.14c-.79-.65-37.92-5.75-49.18-12.32s-55.44-23.6-55.44-23.6Z"/><path class="cls-87" d="M878.56,214s7.68,2.51,7.68,7Z"/><path class="cls-87" d="M598.32,167.21a37.71,37.71,0,0,0,17.17,16.54c12.17,5.67,20,9.41,20,9.41s-3.74-.52-2.82.48,22.33,2.92,29.82,4.05,31.41,5.68,40.43,6.77c7.88.95,16-1.34,19.46-1.93h0a7.91,7.91,0,0,1,1.17-.13c2.34,0,10.59,2.06,10.59,2.06s-5.26-3.68-11.31-3.68-15.28-6.16-25.8-9.41c-8.6-2.65-20.79-4.66-25-5.32,1.46.1,2.57-.46-4.61-4.73-12-7.13-29.39-14.11-29.39-14.11Z"/><path class="cls-87" d="M737.4,204.68s5.72,2.23,18,2.23C755.42,206.91,749.69,202.25,737.4,204.68Z"/><path class="cls-88" d="M691.6,167.21s18,12.5,27.72,11.07,34.18,3.85,47.8,6.17a81.73,81.73,0,0,1,22.43,7l-6.3,2.24s7.27,2.75,21.87,5.54,43.18,3.21,44.84,4.57,2.41,6.4,4.34,8c1.1.91,8.89,1.5,15.34,1.83a43.52,43.52,0,0,1-7.3-1.35c-7.21-2.05-8-5.07-10.33-7.55s-13.08-2.22-26.87-4.51-31.58-8.75-31.58-8.75c-10.09-5.29-40.64-14.05-40.64-14.05l4.52-2.13a130.82,130.82,0,0,1-27.06-2.14,231.22,231.22,0,0,1-25.27-5.91Z"/><path class="cls-88" d="M722.39,202.53h0Z"/><path class="cls-88" d="M598.32,167.21a37.71,37.71,0,0,0,17.17,16.54c12.17,5.67,20,9.41,20,9.41s-3.74-.52-2.82.48,22.33,2.92,29.82,4.05,31.41,5.68,40.43,6.77c7.88.95,16-1.34,19.46-1.93-.57.09-13.34,2.05-20.42.41-7.23-1.67-24.07-9.31-24.07-9.31h4.7s-10-2.75-25.91-7.68-22.1-11.1-22.1-11.1l11.47.91c-11.5-4.43-35.09-8.55-35.09-8.55Z"/><path class="cls-88" d="M683,193.62s4.6-.18,6.62,1l2,1.17S683.92,194.66,683,193.62Z"/><polygon class="cls-89" points="540.23 208.31 617.36 208.31 966.63 562.25 956.94 565.05 540.23 208.31"/><polygon class="cls-90" points="636.64 208.31 864.21 210 990.05 561.53 978.97 563.09 636.64 208.31"/><circle class="cls-91" cx="508.36" cy="408.25" r="184.58"/></g><g id="Layer_4" data-name="Layer 4"><polygon class="cls-92" points="901.92 256.86 918.21 258.61 914.54 255.13 901.92 256.86"/><rect class="cls-92" x="914.54" y="162.9" width="99.57" height="411.77"/><polygon class="cls-93" points="914.54 220.67 1014.78 204.31 1014.11 241.29 914.54 255.19 914.54 220.67"/><polygon class="cls-93" points="1014.11 282.68 914.54 294.85 914.54 300.49 1014.11 290.04 1014.11 282.68"/><polygon class="cls-94" points="1014.78 448.81 914.54 444.98 914.54 574.67 1014.11 574.67 1014.78 448.81"/><polygon class="cls-94" points="1014.11 427.01 954.59 427.01 954.59 442.25 1014.11 445.67 1014.11 427.01"/><polygon class="cls-94" points="1014.11 321.22 914.54 330.97 914.54 366.89 1014.11 359.79 1014.11 321.22"/><polygon class="cls-93" points="961.68 363.53 961.68 389.32 1014.11 387.99 1014.11 359.79 961.68 363.53"/><polygon class="cls-93" points="915.63 427.01 1014.11 427.01 1014.78 412.41 915.68 414.17 915.63 427.01"/><polygon class="cls-92" points="914.54 379.14 901.92 380.87 901.92 413.6 914.54 413.6 914.54 379.14"/><polygon class="cls-92" points="914.54 300.4 901.92 302.13 901.92 334.86 914.54 334.86 914.54 300.4"/><polygon class="cls-92" points="914.54 220.67 901.92 224.56 901.92 256.86 914.54 255.13 914.54 220.67"/></g><g id="Layer_5" data-name="Layer 5"><polygon class="cls-95" points="559.61 314.79 564.34 306.9 594.96 306.9 594.57 314.79 559.61 314.79"/><polygon class="cls-96" points="594.96 306.9 599.25 309.43 603.15 317.45 594.57 314.79 594.96 306.9"/><polygon class="cls-97" points="550.33 558.36 549.99 314.79 599.25 314.79 599.25 560.28 550.33 558.36"/><polygon class="cls-96" points="599.25 314.79 607.06 320.11 607.06 559.73 599.25 560.28 599.25 314.79"/><polygon class="cls-95" points="693.15 377.37 696.7 371.46 719.61 371.46 719.32 377.37 693.15 377.37"/><polygon class="cls-96" points="719.61 371.46 722.82 373.36 725.75 379.37 719.32 377.37 719.61 371.46"/><polygon class="cls-97" points="686.2 559.7 685.95 377.37 722.82 377.37 722.82 561.13 686.2 559.7"/><polygon class="cls-96" points="722.82 377.37 728.67 381.36 728.67 560.72 722.82 561.13 722.82 377.37"/><rect class="cls-98" x="750.76" y="285.1" width="2.03" height="26.77"/><polygon class="cls-98" points="757.59 361.33 736.51 361.33 736.51 340.06 743.41 339.12 757.59 361.33"/><polygon class="cls-97" points="739.26 566.08 739.26 354.6 772.41 354.6 772.41 568.22 739.26 566.08"/><polygon class="cls-98" points="739.26 354.6 732.85 356.66 734.31 567.68 739.26 568.42 739.26 354.6"/><polygon class="cls-97" points="768.73 360.39 743.41 360.39 743.41 339.12 749.31 330.79 758.3 330.79 768.73 340.06 768.73 360.39"/><polygon class="cls-98" points="749.31 330.79 746.17 331.54 736.51 340.06 743.41 339.12 749.31 330.79"/><polygon class="cls-97" points="749.31 330.79 749.95 312.19 753.37 309.43 756.89 312.26 758.3 330.79 749.31 330.79"/><polygon class="cls-98" points="753.37 309.43 749.31 311.1 747.5 312.71 746.17 331.54 749.31 330.79 749.95 312.19 753.37 309.43"/><rect class="cls-97" x="751.78" y="285.1" width="2.03" height="26.77"/><circle class="cls-99" cx="881.48" cy="416.95" r="0.43"/><path class="cls-99" d="M802.6,491.23a.43.43,0,1,0,.42-.42A.42.42,0,0,0,802.6,491.23Z"/><path class="cls-99" d="M706.46,515.61a.43.43,0,1,0,.42-.42A.42.42,0,0,0,706.46,515.61Z"/><circle class="cls-99" cx="664.55" cy="477.37" r="0.43"/><circle class="cls-99" cx="668.42" cy="535.91" r="0.43"/><circle class="cls-99" cx="689.18" cy="461.78" r="0.43"/><path class="cls-99" d="M763.46,492.06a.43.43,0,1,0,.42-.42A.42.42,0,0,0,763.46,492.06Z"/><circle class="cls-99" cx="721.96" cy="514.61" r="0.43"/><path class="cls-99" d="M830.42,366.81a.69.69,0,0,0,.69.69.7.7,0,0,0,.7-.69.71.71,0,0,0-.7-.7A.7.7,0,0,0,830.42,366.81Z"/><path class="cls-99" d="M618.47,448.93a.7.7,0,1,0,.69-.69A.69.69,0,0,0,618.47,448.93Z"/><path class="cls-99" d="M889.28,431.9a.7.7,0,1,0,1.39,0,.7.7,0,0,0-1.39,0Z"/><rect class="cls-100" x="813.32" y="361.34" width="30.54" height="205.37"/><rect class="cls-101" x="804.55" y="361.34" width="30.54" height="205.37"/><g class="cls-102"><rect class="cls-103" x="827.88" y="427.4" width="1.04" height="1.63"/><rect class="cls-103" x="814.23" y="418.77" width="1.04" height="1.63"/><rect class="cls-103" x="831.84" y="511.64" width="1.04" height="1.63"/><rect class="cls-103" x="814.23" y="438.31" width="1.04" height="1.63"/><rect class="cls-103" x="814.23" y="451.51" width="1.04" height="1.63"/><rect class="cls-103" x="832.36" y="401.38" width="1.04" height="1.63"/><rect class="cls-103" x="803.91" y="514.31" width="1.04" height="1.63"/><rect class="cls-103" x="815.26" y="389.13" width="1.04" height="1.63"/><rect class="cls-103" x="817.18" y="389.13" width="1.04" height="1.63"/></g><rect class="cls-97" x="623.92" y="447.4" width="30.99" height="121.02"/><path class="cls-104" d="M905.77,571.87c1.68-24.22,3.69-48.52.9-72.72a148.55,148.55,0,0,1,6.76-44.35,149.51,149.51,0,0,1-4-42.33l-8.94,3V571.84C902.22,571.81,904,571.82,905.77,571.87Z"/><path class="cls-105" d="M905.77,571.87c1.68-24.22,3.69-48.52.9-72.72a148.28,148.28,0,0,1,6.75-44.31,152.35,152.35,0,0,1-3.93-26h-9V571.84C902.22,571.81,904,571.82,905.77,571.87Z"/><path class="cls-106" d="M698.64,428.91h36.79l.75,13.13-9.1,23.85-23.72-2.45S696.32,437.76,698.64,428.91Z"/><rect class="cls-98" x="703.35" y="442.41" width="27.37" height="0.57"/><rect class="cls-98" x="703.35" y="450.96" width="27.37" height="0.57"/><rect class="cls-98" x="701.22" y="434.81" width="31.63" height="0.57"/><path class="cls-98" d="M735.47,574.42c2.52,0,5,.1,7.5.22l-5.66-148.86h-1.88v9.32l-2.58-.05,0,7.29-2.1.07v8l-2.64,0,0,9.12h-2.88V574.39l1.38,0C729.52,574.32,732.48,574.31,735.47,574.42Z"/><path class="cls-100" d="M727.08,574.4c2.77-.08,5.57-.08,8.39,0,3.3,0,6.57.13,9.81.34V432.43l-8-6.65v9.32l-2.58-.05,0,7.29-2.09.07v8l-2.64,0v9.12h-2.88Z"/><path class="cls-100" d="M692.56,575.69q4.92,0,9.75.33c2.17-.37,4.35-.7,6.56-.95V459.51H706v-9.12l-2.64,0v-8l-2.09-.07,0-7.29-2.58.05v-9.32h-1.59l-6,149.87Z"/><path class="cls-98" d="M692.56,575.69q4.91,0,9.73.33c1.65-.29,3.31-.54,5-.76V459.51h-2.88l0-9.12-2.64,0v-8l-2.1-.07,0-7.29-2.58.05v-9.32l-8,6.65V575.61C690.23,575.62,691.39,575.64,692.56,575.69Z"/><path class="cls-106" d="M725.21,574.39V459.51H708.87V575.07A119.31,119.31,0,0,1,725.21,574.39Z"/><polygon class="cls-100" points="766.81 568.22 766.81 397.62 809.17 462.37 809.17 567.68 766.81 568.22"/><polygon class="cls-98" points="766.81 397.62 761.98 397.62 763.41 568.2 766.81 568.22 766.81 397.62"/><polygon class="cls-101" points="761.98 397.62 751.78 458.8 751.78 568.2 763.41 568.2 761.98 397.62"/><polygon class="cls-101" points="814.11 499.54 772.41 521.75 772.41 568.22 812.02 568.08 814.11 499.54"/><polygon class="cls-98" points="772.41 521.75 780.13 523.24 814.11 499.54 809.17 496.92 772.41 521.75"/><polygon class="cls-100" points="772.41 568.22 780.13 568.22 780.13 523.24 772.41 521.75 772.41 568.22"/><polygon class="cls-100" points="759.48 568.42 759.48 522.32 754.36 524.21 754.36 568.25 759.48 568.42"/><polygon class="cls-98" points="759.48 522.32 751.78 502.92 746.73 503.97 754.36 524.21 759.48 522.32"/><polygon class="cls-101" points="754.36 568.25 746.73 568.25 746.73 503.97 754.36 524.21 754.36 568.25"/><rect class="cls-107" x="789.81" y="473.31" width="1.04" height="1.63"/><rect class="cls-107" x="776.16" y="464.67" width="1.04" height="1.63"/><rect class="cls-107" x="793.78" y="557.54" width="1.04" height="1.63"/><rect class="cls-107" x="767.7" y="499.65" width="1.04" height="1.63"/><rect class="cls-107" x="791.85" y="526.66" width="1.04" height="1.63"/><rect class="cls-107" x="766.36" y="499.65" width="1.04" height="1.63"/><rect class="cls-107" x="752.59" y="533.66" width="1.04" height="1.63"/><rect class="cls-107" x="794.29" y="447.28" width="1.04" height="1.63"/><rect class="cls-107" x="756.4" y="492.49" width="1.04" height="1.63"/><rect class="cls-107" x="765.85" y="560.21" width="1.04" height="1.63"/><rect class="cls-107" x="777.2" y="435.03" width="1.04" height="1.63"/><rect class="cls-107" x="779.11" y="435.03" width="1.04" height="1.63"/><polygon class="cls-96" points="638.67 568.2 678.22 568.2 678.22 442.88 638.67 391.35 638.67 568.2"/><polygon class="cls-97" points="635.99 568.2 675.53 568.2 675.53 440.75 635.99 377.94 635.99 568.2"/><polygon class="cls-96" points="678.22 442.88 675.53 442.88 635.99 377.94 663.48 381.34 678.22 442.88"/><polygon class="cls-96" points="658.44 568.06 635.99 397.63 635.99 568.2 658.44 568.06"/><g class="cls-102"><rect class="cls-108" x="635.99" y="542.43" width="39.54" height="0.45"/></g><g class="cls-102"><rect class="cls-108" x="635.99" y="554.88" width="39.54" height="0.45"/></g><g class="cls-102"><rect class="cls-108" x="635.99" y="517.65" width="39.54" height="0.45"/></g><g class="cls-102"><rect class="cls-108" x="635.99" y="529.59" width="39.54" height="0.45"/></g><g class="cls-102"><rect class="cls-108" x="635.99" y="507.52" width="39.54" height="0.45"/></g><g class="cls-102"><rect class="cls-108" x="635.99" y="495.28" width="39.54" height="0.45"/></g><g class="cls-102"><rect class="cls-108" x="635.99" y="483.05" width="39.54" height="0.45"/></g><g class="cls-102"><rect class="cls-108" x="635.99" y="470.81" width="39.54" height="0.45"/></g><g class="cls-102"><rect class="cls-108" x="635.99" y="458.57" width="39.54" height="0.45"/></g><g class="cls-102"><rect class="cls-108" x="635.99" y="446.34" width="39.54" height="0.45"/></g><g class="cls-102"><rect class="cls-108" x="635.99" y="434.1" width="34.33" height="0.45"/></g><g class="cls-102"><rect class="cls-108" x="635.99" y="421.86" width="26.88" height="0.45"/></g><g class="cls-102"><rect class="cls-108" x="635.99" y="409.63" width="19.29" height="0.45"/></g><g class="cls-102"><rect class="cls-108" x="635.99" y="397.39" width="12.05" height="0.45"/></g><g class="cls-102"><rect class="cls-108" x="635.99" y="385.16" width="4.68" height="0.45"/></g><polygon class="cls-96" points="660.65 380.99 658.44 378.82 641.54 377 640 378.44 660.65 380.99"/><rect class="cls-109" x="664.13" y="513.24" width="10.7" height="1.1"/><rect class="cls-109" x="667.09" y="513.24" width="7.74" height="1.1"/><rect class="cls-110" x="670.96" y="513.24" width="3.87" height="1.1"/><rect class="cls-109" x="637.87" y="559.73" width="10.7" height="1.1"/><rect class="cls-109" x="640.83" y="559.73" width="7.74" height="1.1"/><rect class="cls-110" x="644.7" y="559.73" width="3.87" height="1.1"/><rect class="cls-109" x="637.87" y="447.54" width="10.7" height="1.1"/><rect class="cls-109" x="640.83" y="447.54" width="7.74" height="1.1"/><rect class="cls-110" x="644.7" y="447.54" width="3.87" height="1.1"/><rect class="cls-109" x="666.15" y="458.39" width="1.04" height="1.63"/><rect class="cls-109" x="652.5" y="449.76" width="1.04" height="1.63"/><rect class="cls-109" x="670.11" y="542.62" width="1.04" height="1.63"/><rect class="cls-110" x="644.03" y="484.73" width="1.04" height="1.63"/><rect class="cls-109" x="642.7" y="484.73" width="1.04" height="1.63"/><rect class="cls-110" x="666.67" y="476.98" width="1.04" height="1.63"/><rect class="cls-110" x="642.18" y="545.29" width="1.04" height="1.63"/><rect class="cls-109" x="653.53" y="420.11" width="1.04" height="1.63"/><rect class="cls-109" x="655.45" y="420.11" width="1.04" height="1.63"/><rect class="cls-97" x="535.84" y="416.45" width="47.54" height="148.04"/><rect class="cls-96" x="549.99" y="494.4" width="25.58" height="73.73"/><rect class="cls-111" x="564.82" y="375.17" width="60.28" height="192.68"/><rect class="cls-112" x="614.64" y="388.99" width="5.14" height="178.86"/><g class="cls-102"><rect class="cls-108" x="567.53" y="388.99" width="0.46" height="178.86"/></g><g class="cls-102"><rect class="cls-108" x="575.34" y="388.99" width="0.46" height="178.86"/></g><g class="cls-102"><rect class="cls-108" x="583.15" y="388.99" width="0.46" height="178.86"/></g><g class="cls-102"><rect class="cls-108" x="590.97" y="388.99" width="0.46" height="178.86"/></g><g class="cls-102"><rect class="cls-108" x="598.78" y="388.99" width="0.46" height="178.86"/></g><g class="cls-102"><rect class="cls-108" x="606.6" y="388.99" width="0.46" height="178.86"/></g><g class="cls-102"><rect class="cls-108" x="614.41" y="388.99" width="0.46" height="178.86"/></g><g class="cls-102"><rect class="cls-108" x="622.23" y="388.99" width="0.46" height="178.86"/></g><path class="cls-98" d="M594.72,405.39A30.38,30.38,0,0,0,625.1,375H564.34A30.38,30.38,0,0,0,594.72,405.39Z"/><rect class="cls-109" x="602.5" y="504.69" width="10.7" height="1.1"/><rect class="cls-109" x="605.46" y="504.69" width="7.74" height="1.1"/><rect class="cls-110" x="609.33" y="504.69" width="3.87" height="1.1"/><rect class="cls-109" x="576.24" y="551.17" width="10.7" height="1.1"/><rect class="cls-109" x="579.2" y="551.17" width="7.74" height="1.1"/><rect class="cls-110" x="583.07" y="551.17" width="3.87" height="1.1"/><rect class="cls-109" x="576.24" y="438.99" width="10.7" height="1.1"/><rect class="cls-109" x="579.2" y="438.99" width="7.74" height="1.1"/><rect class="cls-110" x="583.07" y="438.99" width="3.87" height="1.1"/><rect class="cls-109" x="604.52" y="449.83" width="1.04" height="1.63"/><rect class="cls-109" x="616.7" y="447.03" width="1.04" height="1.63"/><rect class="cls-109" x="590.87" y="441.2" width="1.04" height="1.63"/><rect class="cls-109" x="618.64" y="455.72" width="1.04" height="1.63"/><rect class="cls-109" x="617.21" y="534.76" width="1.04" height="1.63"/><rect class="cls-109" x="608.49" y="534.07" width="1.04" height="1.63"/><rect class="cls-110" x="582.41" y="476.18" width="1.04" height="1.63"/><rect class="cls-109" x="581.07" y="476.18" width="1.04" height="1.63"/><rect class="cls-110" x="609" y="423.81" width="1.04" height="1.63"/><rect class="cls-110" x="616.18" y="434" width="1.04" height="1.63"/><rect class="cls-110" x="580.56" y="536.74" width="1.04" height="1.63"/><rect class="cls-109" x="591.91" y="411.56" width="1.04" height="1.63"/><rect class="cls-109" x="593.82" y="411.56" width="1.04" height="1.63"/><rect class="cls-106" x="864.64" y="365.29" width="31.08" height="17.55"/><rect class="cls-97" x="851.95" y="365.29" width="31.08" height="17.55"/><rect class="cls-106" x="862.61" y="373.64" width="37.96" height="176.34"/><rect class="cls-97" x="847.11" y="373.64" width="37.96" height="176.34"/><path class="cls-106" d="M878.34,574.35a114.72,114.72,0,0,1,26.22-2.51V391.94H860.93V568.28l8.18,6.44C872.15,574.47,875.23,574.36,878.34,574.35Z"/><rect class="cls-97" x="843.11" y="391.94" width="43.63" height="176.34"/><rect class="cls-106" x="856.09" y="373.64" width="15.6" height="18.3"/><rect class="cls-106" x="860.22" y="382.79" width="9.78" height="186.15"/><rect class="cls-113" x="857.7" y="382.79" width="9.78" height="186.15"/><rect class="cls-100" x="883.03" y="391.94" width="3.71" height="176.34"/><path class="cls-100" d="M904.56,571.84V391.94h-2.33V571.82Z"/><rect class="cls-114" x="843.11" y="391.94" width="2" height="176.59"/><path class="cls-100" d="M490.8,396.07c.23,2.39.41,4.78.52,7.16s.07,4.78,0,7.13l0,.44a88,88,0,0,1-.13,9.06c.05.77.09,1.53.13,2.3A89.09,89.09,0,0,1,491,433.4c.13,1.72.24,3.45.32,5.17a86.27,86.27,0,0,1-.44,12.5,144.52,144.52,0,0,1,1.7,16.52A84.34,84.34,0,0,1,491.45,485a141.82,141.82,0,0,1,2.39,20.44,88.6,88.6,0,0,1-.2,10.2,144.38,144.38,0,0,1,1.46,15,82.31,82.31,0,0,1-3.3,26.81c.37,3.27.63,6.54.78,9.79,0,.26,0,.52,0,.78h58v-172Z"/><g class="cls-102"><rect class="cls-108" x="498.48" y="405.16" width="51.85" height="0.46"/><rect class="cls-108" x="498.48" y="416.94" width="51.85" height="0.46"/><rect class="cls-108" x="498.48" y="428.73" width="51.85" height="0.46"/><rect class="cls-108" x="498.48" y="440.51" width="51.85" height="0.46"/><rect class="cls-108" x="498.48" y="452.3" width="51.85" height="0.46"/><rect class="cls-108" x="498.48" y="464.08" width="51.85" height="0.46"/><rect class="cls-108" x="498.48" y="475.87" width="51.85" height="0.46"/><rect class="cls-108" x="498.48" y="487.65" width="51.85" height="0.46"/><rect class="cls-108" x="498.48" y="499.44" width="51.85" height="0.46"/><rect class="cls-108" x="498.48" y="511.22" width="51.85" height="0.46"/><rect class="cls-108" x="498.48" y="523.01" width="51.85" height="0.46"/><rect class="cls-108" x="498.48" y="534.79" width="51.85" height="0.46"/><rect class="cls-108" x="498.48" y="546.58" width="51.85" height="0.46"/><rect class="cls-108" x="498.48" y="558.36" width="51.85" height="0.46"/></g><path class="cls-101" d="M490.8,396.07c.23,2.39.41,4.78.52,7.16s.07,4.78,0,7.13l0,.44a88,88,0,0,1-.13,9.06c.05.77.09,1.53.13,2.3A89.09,89.09,0,0,1,491,433.4c.13,1.72.24,3.45.32,5.17a86.27,86.27,0,0,1-.44,12.5,144.52,144.52,0,0,1,1.7,16.52A84.34,84.34,0,0,1,491.45,485a141.82,141.82,0,0,1,2.39,20.44,88.6,88.6,0,0,1-.2,10.2,144.38,144.38,0,0,1,1.46,15,82.31,82.31,0,0,1-3.3,26.81c.37,3.27.63,6.54.78,9.79,0,.26,0,.52,0,.78h30.09v-172Z"/><rect class="cls-115" x="504.88" y="394.37" width="30.96" height="174.06"/><rect class="cls-116" x="508.92" y="394.37" width="30.96" height="174.06"/><rect class="cls-115" x="512.98" y="373.12" width="19.41" height="195.3"/><rect class="cls-116" x="515.52" y="373.12" width="19.41" height="195.3"/><rect class="cls-103" x="525.27" y="373.12" width="2.97" height="195.3"/><g class="cls-102"><path class="cls-108" d="M491.36,405.16c0,.15,0,.31,0,.46h17.55v-.46Z"/><path class="cls-108" d="M491.33,416.94c0,.16,0,.31,0,.46h17.61v-.46Z"/><path class="cls-108" d="M491.32,428.73c0,.15,0,.31,0,.46h17.62v-.46Z"/><path class="cls-108" d="M491.36,440.51c0,.16,0,.31,0,.46h17.55v-.46Z"/><path class="cls-108" d="M491.08,452.3l.06.46h17.78v-.46Z"/><path class="cls-108" d="M492.36,464.08l0,.46h16.53v-.46Z"/><path class="cls-108" d="M492.51,475.87c0,.15,0,.31,0,.46h16.44v-.46Z"/><path class="cls-108" d="M491.91,487.65l.09.46h16.92v-.46Z"/><path class="cls-108" d="M493.44,499.44c0,.15,0,.31,0,.46h15.44v-.46Z"/><path class="cls-108" d="M493.87,511.22c0,.16,0,.31,0,.46h15.07v-.46Z"/><path class="cls-108" d="M494.53,523c0,.15,0,.31.05.46h14.34V523Z"/><path class="cls-108" d="M495.16,534.79c0,.16,0,.31,0,.46h13.77v-.46Z"/><path class="cls-108" d="M494.25,546.58c0,.15,0,.31-.07.46h14.74v-.46Z"/><path class="cls-108" d="M491.89,558.36c0,.16,0,.31,0,.46h17v-.46Z"/></g><rect class="cls-116" x="509.96" y="531.51" width="25.46" height="36.17"/><rect class="cls-117" x="502.79" y="531.51" width="25.46" height="36.17"/><rect class="cls-109" x="493.91" y="458.68" width="1.04" height="1.63"/><rect class="cls-118" x="520.13" y="457.99" width="1.04" height="1.63"/><rect class="cls-118" x="516.78" y="498.04" width="1.04" height="1.63"/><rect class="cls-118" x="517.3" y="422.09" width="1.04" height="1.63"/><rect class="cls-118" x="527.73" y="395.26" width="1.04" height="1.63"/><rect class="cls-109" x="494.43" y="411.15" width="1.04" height="1.63"/><rect class="cls-110" x="504.98" y="539.39" width="1.04" height="1.63"/><rect class="cls-110" x="519.61" y="548.78" width="1.04" height="1.63"/><rect class="cls-110" x="542.95" y="434.81" width="1.04" height="1.63"/><rect class="cls-110" x="545.29" y="400.98" width="1.04" height="1.63"/><rect class="cls-110" x="544.26" y="458.68" width="1.04" height="1.63"/><rect class="cls-110" x="543.46" y="506.44" width="1.04" height="1.63"/><rect class="cls-109" x="516.27" y="553.85" width="1.04" height="1.63"/><rect class="cls-109" x="541.56" y="434.81" width="1.04" height="1.63"/><rect class="cls-109" x="542.08" y="520" width="1.04" height="1.63"/><rect class="cls-109" x="531.36" y="547.79" width="1.04" height="1.63"/><rect class="cls-109" x="872.04" y="505.09" width="10.7" height="1.1"/><rect class="cls-109" x="875" y="505.09" width="7.74" height="1.1"/><rect class="cls-110" x="878.88" y="505.09" width="3.87" height="1.1"/><rect class="cls-109" x="845.78" y="551.57" width="10.7" height="1.1"/><rect class="cls-109" x="848.74" y="551.57" width="7.74" height="1.1"/><rect class="cls-110" x="852.62" y="551.57" width="3.87" height="1.1"/><rect class="cls-109" x="845.78" y="439.39" width="10.7" height="1.1"/><rect class="cls-109" x="848.74" y="439.39" width="7.74" height="1.1"/><rect class="cls-110" x="852.62" y="439.39" width="3.87" height="1.1"/><rect class="cls-109" x="874.07" y="450.23" width="1.04" height="1.63"/><rect class="cls-109" x="860.42" y="441.6" width="1.04" height="1.63"/><rect class="cls-109" x="878.03" y="534.47" width="1.04" height="1.63"/><rect class="cls-110" x="851.95" y="476.58" width="1.04" height="1.63"/><rect class="cls-109" x="850.62" y="476.58" width="1.04" height="1.63"/><rect class="cls-110" x="878.55" y="424.21" width="1.04" height="1.63"/><rect class="cls-110" x="850.1" y="537.14" width="1.04" height="1.63"/><rect class="cls-109" x="861.45" y="411.96" width="1.04" height="1.63"/><rect class="cls-109" x="863.37" y="411.96" width="1.04" height="1.63"/><rect class="cls-110" x="851.95" y="365.29" width="31.08" height="8.35"/><rect class="cls-109" x="857.7" y="365.29" width="25.33" height="8.35"/><polygon class="cls-100" points="654.91 568.42 654.57 490.47 688.75 490.47 688.75 569.31 654.91 568.42"/><polygon class="cls-119" points="654.57 490.47 648.27 490.81 648.27 568.42 654.91 568.42 654.57 490.47"/></g><g id="Layer_3" data-name="Layer 3"><path class="cls-120" d="M1041,238.24l-15.63,1.47H478.82l-7.38-.79c0,.05,0,.1,0,.16a37.68,37.68,0,0,1-.21,5.82l7.58.7h546.5l13.14-1.15A48.16,48.16,0,0,1,1041,238.24Z"/><path class="cls-121" d="M1038.79,152l-10.49,2.27h-548l-16.45-4v9.32l16.45,3.35L1029,160.22l10.81-2A61.73,61.73,0,0,1,1038.79,152Z"/><path class="cls-122" d="M1036.91,572l-4.73-.94H480.33l-12.14,3a52.19,52.19,0,0,1,2.23,7.78l9.37-2.87H1028.3l7.65,1.91A40.18,40.18,0,0,1,1036.91,572Z"/><path class="cls-123" d="M1039.56,569l-7.38-1.44-552.12.81-8.74,1.79c-.08,1.06-.19,2.12-.34,3.18l9.35-2.3h551.85l6.07,1.27C1038.64,571.18,1039.07,570.08,1039.56,569Z"/><polygon class="cls-120" points="465.53 583.29 492.1 578.93 492.1 154.22 465.53 152.04 465.53 583.29"/><polygon class="cls-124" points="459.65 164 461.32 571.03 465.53 574.67 465.53 159.88 459.65 164"/><polygon class="cls-125" points="1038.61 581.5 1012.04 578.93 1012.04 154.22 1038.61 152.04 1038.61 581.5"/><polygon class="cls-120" points="1044.55 160.08 1044.48 569.59 1038.61 572.31 1038.61 158.65 1044.55 160.08"/><polygon class="cls-122" points="492.1 154.22 492.1 162.9 1012.04 159.88 1012.04 154.22 492.1 154.22"/><path class="cls-120" d="M1029,508.14l-3.65-.28H478.82L466,509.34c.22,1.62.38,3.26.45,4.91,0,.37,0,.74,0,1.11l12.4-1.61h546.5l3.06.26A40.67,40.67,0,0,1,1029,508.14Z"/><polygon class="cls-120" points="749.56 161.41 751.09 571.03 757.51 571.03 755.58 161.41 749.56 161.41"/><polygon class="cls-124" points="559.01 239.86 561.95 245.6 711.29 245.6 708.08 239.71 559.01 239.86"/><polygon class="cls-124" points="850.99 507.86 853.67 513.75 961.79 513.75 958.58 508.01 850.99 507.86"/><polygon class="cls-124" points="837.88 507.86 837.88 513.75 823.7 513.75 823.7 508.01 837.88 507.86"/><polygon class="cls-120" points="1031.78 580 1028.3 581.5 1031.58 149.25 1034.38 152.86 1031.78 580"/><polygon class="cls-126" points="1028.3 581.5 1014.65 581.5 1017.12 152.04 1031.58 149.25 1028.3 581.5"/><polygon class="cls-122" points="475.04 585.22 474.77 147.91 490.56 152.04 490.56 581.2 475.04 585.22"/><polygon class="cls-124" points="474.77 147.91 470.36 152.04 471.56 583.29 475.04 585.22 474.77 147.91"/><polygon class="cls-121" points="882.84 571.03 892.48 578.93 992.84 578.93 989.22 571.03 882.84 571.03"/><polygon class="cls-127" points="1017.15 255.2 1030.67 269.76 1029.56 415.46 1015.7 399.35 1017.15 255.2"/><polygon class="cls-128" points="1012.04 191.6 1038.61 214 1038.61 152.04 1034.38 152.86 1031.58 149.25 1017.12 152.04 1016.57 154.22 1012.04 154.22 1012.04 191.6"/><polygon class="cls-127" points="1038.61 423.33 1033.18 416.01 1033.63 276.9 1038.27 284.13 1038.61 423.33"/><polygon class="cls-6" points="455.36 179.21 317.19 262.51 76.55 789.51 299.3 728.75 1046.91 570.67 459.99 570.67 455.36 179.21"/></g><g id="Layer_9" data-name="Layer 9"><circle class="cls-129" cx="326.76" cy="231.43" r="29"/><path class="cls-130" d="M326.76,236.2a39.66,39.66,0,0,1,25.43,9.17,29,29,0,1,0-50.86,0A39.66,39.66,0,0,1,326.76,236.2Z"/><path d="M388,231.43c-6.16-16.57-31.23-29-61.23-29s-55.07,12.41-61.24,29Z"/><rect x="327.78" y="62.38" width="1.79" height="140.04"/><circle class="cls-129" cx="1067.43" cy="231.43" r="29"/><path class="cls-131" d="M1067.43,236.2a39.66,39.66,0,0,1,25.43,9.17,29,29,0,1,0-50.86,0A39.66,39.66,0,0,1,1067.43,236.2Z"/><path d="M1128.67,231.43c-6.17-16.57-31.24-29-61.24-29s-55.07,12.41-61.24,29Z"/><path class="cls-132" d="M326.76,202.45c-1.6,0-3.18.05-4.75.12,9.3,6.25,14.92,17.38,17.51,28.86H388C381.83,214.86,356.76,202.45,326.76,202.45Z"/><rect x="1068.45" y="62.38" width="1.79" height="140.04"/><path class="cls-133" d="M1067.43,202.45c-1.6,0-3.18.05-4.75.12,9.3,6.25,14.92,17.38,17.51,28.86h48.48C1122.5,214.86,1097.43,202.45,1067.43,202.45Z"/></g><g id="Layer_11" data-name="Layer 11"><g id="women_relax" data-name="women relax"><g id="women_relax-2" data-name="women relax"><path class="cls-134" d="M436.52,656.4a83.26,83.26,0,0,1-21.9-8.11,85.28,85.28,0,0,0,4.47,9.12c10.18,17.64,25.13,32.42,40.87,44.41,17.53,13.34,33.64,22.36,45.68,27.65a23.74,23.74,0,0,0,10.9,4.09c3.42.36,7.76.81,11.2-2.09,3.7-3.11,3.89-8,3.9-9.15h0C521.12,718.84,467.58,700.18,436.52,656.4Z"/><path class="cls-135" d="M622.27,562.94c-4.62-12-14.94-21.5-34.86-23.25-5.37-.47-16.08-2-16.08-2s-2.15-1.94-10.73-9.09-33.78-13-33.78-13A61.18,61.18,0,0,0,518.24,504c-5.89-6.49-23.59-11.69-23.59-11.69s-1.61-1.3-7.5-5.84c-2.07-1.6-7.77-5.1-14.3-9-53.37-17.09-103-20-135.37-10.33-20.27,6.06-33.82,17.05-37.39,32.6a56.39,56.39,0,0,0-1.3,9.23s0,.07,0,.1c-.75,12.63,2.06,27.62,8.51,43.19.3.72.61,1.45.93,2.18l.21.48c.26.62.54,1.23.82,1.85.06.12.11.24.17.38q1,2.24,2.16,4.47l.19.39q.51,1,1.05,2l.11.2q1.23,2.34,2.58,4.7l.05.08a169.37,169.37,0,0,0,29.37,37.42c18.5,17.84,42.62,33.44,72.51,43.52,34.72,11.7,72.26,12.8,105.69,7.33,27.66-4.52,52.51-13.54,70.62-24.76h0l.14-.09c.26-.15.51-.31.76-.48.42-.26.85-.53,1.27-.81l.71-.46c.6-.39,1.19-.79,1.78-1.19l.48-.34,1.4-1,.58-.41,1.61-1.2.15-.11,1.69-1.33.45-.36,1.4-1.15a3,3,0,0,1,.27-.23c.54-.46,1.06-.92,1.58-1.38l.31-.29c.44-.39.86-.79,1.28-1.18.1-.1.2-.2.31-.29.49-.47,1-1,1.44-1.42l.17-.18c.41-.42.82-.84,1.2-1.26l.33-.35c.43-.48.86-1,1.27-1.44a45.52,45.52,0,0,0,6.77-10.21c.23-.47.43-.93.62-1.4l.15-.35c.17-.43.34-.87.5-1.31,0-.15.1-.3.14-.45s.13-.35.19-.53h0c.24-.77.47-1.55.65-2.32C625.9,587.85,626.66,574.3,622.27,562.94ZM351.74,600a180.76,180.76,0,0,1-14.91-15.42c-12.6-14.42-25.65-32.34-27.16-39.74-1.36-6.7-3.08-14.59-3.66-20.71,6.63,10.86,16.12,21.28,28.08,31a195.52,195.52,0,0,0,17.1,12.4c1.73,6.52,4.05,16.21,4.05,21.26C355.24,592.5,353.56,596.63,351.74,600Zm70,33.84a38,38,0,0,1-2.64,6.59,191,191,0,0,1-51.94-27.86c-2-5.7-4.4-13.79-4.4-19.48s1.69-12.32,3.06-16.8a331.36,331.36,0,0,0,51.82,22.74C420.11,608.52,424,625.89,421.73,633.86Zm68.4,17.53a255.33,255.33,0,0,1-44.81-4.12c-2.31-.41-4.58-.87-6.83-1.36-1.91-3.25-4.3-7.85-5-11.51-1.41-7.74.65-21.25,2.23-29.64a396,396,0,0,0,52.63,11.11c1.74,7.25,4.12,17.8,4.12,21.21A47.14,47.14,0,0,1,490.13,651.39ZM552,642.64c-5.15,1.51-10.58,2.9-16.29,4.09a213.91,213.91,0,0,1-27.74,4,36.69,36.69,0,0,1-5.82-11c-1.49-5.21-1.43-16.12-1.25-22.29a360.1,360.1,0,0,0,50.22,2.22,81,81,0,0,1,2.15,9.61,27.35,27.35,0,0,1,.35,4A33.18,33.18,0,0,1,552,642.64Zm13.58-4.47c-1.74-1.65-3.85-4-4.45-6.45-.87-3.48,0-10.14.39-12.52,19.39-1.29,37-4.58,51.29-10.14C611,612.15,582.18,632.13,565.59,638.17Z"/><path class="cls-136" d="M344.93,606.43A169.37,169.37,0,0,1,315.56,569l-.05-.08q-1.35-2.35-2.58-4.7l-.11-.2q-.54-1-1.05-2l-.19-.39q-1.12-2.24-2.16-4.47c-.06-.14-.11-.26-.17-.38-.28-.62-.56-1.23-.82-1.85l-.21-.48c-.32-.73-.63-1.46-.93-2.18-6.45-15.57-9.26-30.56-8.51-43.19,0,0,0-.07,0-.1a56.39,56.39,0,0,1,1.3-9.23c3.57-15.55,17.12-26.54,37.39-32.6l4.9,43.42a149.73,149.73,0,0,0-8.29,44.62c-12-9.73-21.45-20.15-28.08-31,.58,6.12,2.3,14,3.66,20.71,1.51,7.4,14.56,25.32,27.16,39.74A89.33,89.33,0,0,0,344.93,606.43Z"/><path class="cls-137" d="M622.27,562.94c-6.78-4-11.8-6.82-11.8-6.82s-30.56,4.29-37.53,39.14c-2.28,11.37-10.1,23.22-19.66,34a27.35,27.35,0,0,1,.35,4,33.18,33.18,0,0,1-1.62,9.31c-5.15,1.51-10.58,2.9-16.29,4.09-4.38,3.89-8.67,7.45-12.59,10.55,27.66-4.52,52.51-13.54,70.62-24.76h0l.14-.09c.26-.15.51-.31.76-.48.42-.26.85-.53,1.27-.81l.71-.46c.6-.39,1.19-.79,1.78-1.19l.48-.34,1.4-1,.58-.41,1.61-1.2.15-.11,1.69-1.33.45-.36,1.4-1.15a3,3,0,0,1,.27-.23c.54-.46,1.06-.92,1.58-1.38l.31-.29c.44-.39.86-.79,1.28-1.18.1-.1.2-.2.31-.29.49-.47,1-1,1.44-1.42l.17-.18c.41-.42.82-.84,1.2-1.26l.33-.35c.43-.48.86-1,1.27-1.44a45.52,45.52,0,0,0,6.77-10.21c.23-.47.43-.93.62-1.4l.15-.35c.17-.43.34-.87.5-1.31,0-.15.1-.3.14-.45s.13-.35.19-.53h0c.24-.77.47-1.55.65-2.32C625.9,587.85,626.66,574.3,622.27,562.94Zm-56.68,75.23c-1.74-1.65-3.85-4-4.45-6.45-.87-3.48,0-10.14.39-12.52,19.39-1.29,37-4.58,51.29-10.14C611,612.15,582.18,632.13,565.59,638.17Z"/><path class="cls-138" d="M631.38,582.93A24.84,24.84,0,0,1,623.47,595c-24.93,21.8-99.37,19.61-176.25-1.78-89-24.77-153.41-72.49-143.92-106.58a26.08,26.08,0,0,1,4-8.28c6.51-9,19.14-15.52,36.13-19.3,27.38-6.08,66.08-5.12,108.69,3.59,7.85,1.6,15.84,3.47,23.92,5.6,5.82,2.87,11,5.48,13.49,6.95.31.17.58.33.8.48,5.9,3.75,7.51,4.83,7.51,4.83s2.39.58,5.71,1.58c5.7,1.71,14.15,4.68,17.88,8.07a51.91,51.91,0,0,1,8.58,9.65s25.2,4.82,33.78,10.72,10.72,7.51,10.72,7.51,10.72,1.22,16.09,1.61C629.47,522.47,636.64,564,631.38,582.93Z"/><path class="cls-139" d="M452.15,462.66c-8.6,2.62-16.13,5-21,2-7.5-4.56-29.49-1.34-46.11,5.09s-13.13,2.95-16.08-2.41c-1.95-3.55-16.1-6.63-25.46-8.31C370.84,453,409.54,454,452.15,462.66Z"/><g class="cls-140"><path class="cls-141" d="M425.75,469.26s-9.2-7.87-3.48-17.52,9.65-18.94,19.66-15.73,17.87,3.58,18.94-2.14-3.57-29.67,5-27.88,14.29,3.21,14.29-3.93S488,382,488,382s0-10,4.65-8.58,5.36,5.36,4.29,10.36-7.15,12.87-1.08,15,6.44-11.8,8.94-8.58,8.58,3.57,4.29,8.22-4.65,4.29-5,8.58c0,0,2.14,13.94-7.87,15.37s-18.94-3.93-22.52,4.29,5,22.16-8.22,22.88-26.1-2.51-26.81,4.29a27.19,27.19,0,0,0,2.14,12.86Z"/></g><path class="cls-142" d="M528.7,534.13c-.55,1.78-3.2,4.21-5.85,6.27-3,2.32-6,4.19-6,4.19l-14.2,1.61-22,4.56-7.42-12.29-.35-.58s15.81,0,21.18-1.88,12.86-8.58,13.94-8.58,4.55,0,4.82,1.34c.16.77-4.49,2.56-5.36,3.76-.65.88,1.61,4,1.61,4l17.16-11.8S529.41,531.82,528.7,534.13Z"/><path class="cls-143" d="M444.07,481.23l4.87,2.37s-1.83,2.64-6.65,4.6a14,14,0,0,1-10.19,0l2.32-3.57Z"/><path class="cls-144" d="M382.23,507.15s.36,23.59,2.86,39,25,14.3,37.18,19.3,59.33,9.29,70.41,9.65,35.39-1.79,37.54-3.22,17.51-7.14,17.51-7.14-7.14.35-16.8-12.52-27.52-24.66-42.18-30.74-19.66-.35-27.88-10.72-15.37-9.29-23.95-9.65-33.24-3.58-33.24-3.58Z"/><path class="cls-142" d="M401.09,491.51l-7.51,5.63-24.66-8.85-6.7-1.34a74.76,74.76,0,0,0,7-16.46c.1-.35.19-.7.28-1.06a40.87,40.87,0,0,0,.65-13.76c-.21-2-.47-3.3-.47-3.3l12.6.8,1.5,2.5,10.57,17.61a43,43,0,0,0,2.8,8,3.36,3.36,0,0,0,1.16,1.4s0,0,.06,0c.71.31,1.27,1.65,1.68,3.2A41,41,0,0,1,401.09,491.51Z"/><path class="cls-145" d="M397.19,481.23c-3.32-3.18-9.35-4.11-12.81-4.11-4.29,0-2.51-2.86-6.08-7.86-2-2.77-5.91-.95-9,1.23.1-.35.19-.7.28-1.06a40.87,40.87,0,0,0,.65-13.76h13.63l10.57,17.61A43,43,0,0,0,397.19,481.23Z"/><path class="cls-146" d="M522.85,540.4c-3,2.32-6,4.19-6,4.19l-14.2,1.61-22,4.56-7.42-12.29c3.42,1.41,7.68,2.9,10.37,2.9,5.09,0,9.92-1.07,13.67.81s13.41,2.68,22.52-.81C520.86,541,521.86,540.67,522.85,540.4Z"/><path class="cls-142" d="M415.41,448c-2.61,15.67-13,27.31-20.35,27.31s-17.2-10.72-19.9-23H375c-2.59-.19-6.15-4.47-5.81-8.95.3-3.92,3.89-5.35,6.52-5.52C379.76,425.25,393,417.4,401,418c4.54.35,9.2,1.14,12.22,5.12,1.6,2.11,2.74,5.11,3.13,9.41A61.26,61.26,0,0,1,415.41,448Z"/><path class="cls-147" d="M416.36,432.54c-4.91,2.73-12.85,6.71-18.4,7.4-8.58,1.08-8.22,1.08-9.65,1.43s-7.59,3.15-7.59,3.15l7.59-15.65s17.15-3.94,18.94-4.65a51.6,51.6,0,0,1,6-1.09C414.83,425.24,416,428.24,416.36,432.54Z"/><path class="cls-148" d="M420,420.24c-.1,3.87-2.7,8-11.62,13.09-11.26,6.44-19.84,4-21.45,4-1.19,0-4.64,6.6-6.21,7.59,0-.14,0-.28.05-.42.34-4.48-1.38-6.56-4-6.75s-7.25,1-7.59,5.52,3.22,8.76,5.81,8.95a3.37,3.37,0,0,0,.63,0c.38,1.35,1.14,4,1.89,6.05a42.82,42.82,0,0,0,2.42,5.37s-9.65,1.87-12.87-1.88-2.14-10.19-5.36-15.55c-2.9-4.82-10.7-20.63,1.41-31.17a26.37,26.37,0,0,1,4.85-3.32c18.76-10.19,48.43-7.33,51.65,5.54A11.23,11.23,0,0,1,420,420.24Z"/><path class="cls-149" d="M420,420.24c-.1,3.87-2.7,8-11.62,13.09-11.26,6.44-19.84,4-21.45,4-1.19,0-4.64,6.6-6.21,7.59,0-.14,0-.28.05-.42.34-4.48-1.38-6.56-4-6.75s-7.25,1-7.59,5.52,3.22,8.76,5.81,8.95a3.37,3.37,0,0,0,.63,0c.38,1.35,1.14,4,1.89,6.05a42.82,42.82,0,0,0,2.42,5.37s-9.65,1.87-12.87-1.88-2.14-10.19-5.36-15.55c-2.9-4.82-10.7-20.63,1.41-31.17-2.26,4.88-3.08,10.51,2.34,13.83,11.08,6.79,16.44-9.65,22.88-1.79s21.8,8.22,28.24-1.78C417.64,423.59,418.79,421.89,420,420.24Z"/><path class="cls-150" d="M421.48,469.24,444.39,462s8,19.95-4,23.77C425.43,490.49,421.48,469.24,421.48,469.24Z"/><path class="cls-151" d="M428.7,469.61l-.54-1,7.11-2.42s8.09,17.83,6.3,18.9a8.5,8.5,0,0,1-3.57,1.17l-5-11.44L428.7,470"/><path class="cls-152" d="M494.65,552.63l-31.36,4.56-28.71-3.44L415,551.39l-18.7-2.24L352,528.24l-10.19-21.18-1.61-7.24a33.05,33.05,0,0,1,4.6-6.71c2.25-2.51,10.89-6.94,14.44-7.63a25,25,0,0,1,2.65-.39c7.26-.62,9,3.23,19.33,5.88,11.53,2.95,16.35-3.13,16.35-3.13L395.73,477c1.09.37,4.82,2.58,10.25,5.83,0,0,4.68,2.73,8.59,5.12,14.78,9,55.3,47.93,60.63,50.95l3.37,1.91h0l-3.37-1.91,3.37,1.91C481.83,542.69,486.85,546,494.65,552.63Z"/><path class="cls-153" d="M494.65,552.63l-31.36,4.56-28.71-3.44L415,551.39c4.7-11.34,9.81-23.15,9.81-23.15L427.3,496l.33-4.25s0,1.74.13,4.57c.46,11,2.49,38.42,11.3,43,11.09,5.72,13.59-8.23,22.53-.36,6.82,6,13.85,7.43,13.61,0a27.68,27.68,0,0,0,3.37,1.91C485.81,544.05,494.65,552.63,494.65,552.63Z"/><path class="cls-142" d="M431.58,494.19l4,59.56-.73-.09-26-3.13-11.58-1.38L389,545.24l-20.09-9.49L353,528.24l-10.19-21.18-1.61-7.24a33.05,33.05,0,0,1,4.6-6.71c5.95-3.44,15.05-6.82,23.28-2.14,3.65,2.08,8.55,6.25,13.79,11.25,3.57,3.41,7.29,7.21,10.87,11l.44.45c10.7,11.25,21.28,20.2,21.28,20.2l2.15-46.38,9.11-18.23,2.15.53,7.24-1.61,4,11.6,1.64,4.76Z"/><path class="cls-152" d="M417.67,487.54,415.57,533s-10.58-9-21.29-20.19c-.14-.16-.29-.31-.43-.46-3.58-3.79-7.3-7.59-10.87-11-5.24-5-10.14-9.17-13.79-11.25-8.23-4.68-17.33-1.3-23.28,2.14a33.05,33.05,0,0,0-4.6,6.71l1.61,7.24,10.18,21.18,15.9,7.51,20.08,9.49,8.26,3.91,11.58,1.39,26,3.12.73.09-4-58.91A85.74,85.74,0,0,1,417.67,487.54Z"/><path class="cls-154" d="M417.67,487.09l-2.1,45.44s-10.58-8.94-21.29-20.19c-.14-.15-.29-.3-.43-.46-3.58-3.79-7.3-7.59-10.87-11-5.24-5-10.14-9.17-13.79-11.25-8.23-4.67-17.33-1.29-23.28,2.15a32.84,32.84,0,0,0-4.6,6.7l1.61,7.24L353.1,526.9l15.9,7.51,20.08,9.5,8.26,3.9,11.58,1.39,26,3.12.73.09-4-58.9A86.63,86.63,0,0,1,417.67,487.09Z"/><path class="cls-152" d="M421.39,490.15Q420,512.73,418.7,535.3a84.73,84.73,0,0,1-17.29-10.81,63.3,63.3,0,0,1-9.39-9c-5.11-6.09-4.8-8.29-9-13.57a51.21,51.21,0,0,0-13.79-11.25c-8.23-4.68-17.33-1.3-23.28,2.14a32.75,32.75,0,0,0-4.6,6.71l1.61,7.24L353.1,528l15.9,7.52L389.08,545l8.26,3.91,11.58,1.38,26,3.12.73.1-4-58.91Z"/><path class="cls-155" d="M430.58,494.19l4,59.56-.73-.09c-3.44-7.4-9.29-20.72-8-23.28,1.79-3.58,3.22-21.81,0-28.24s3.57-11.44,8.94-14.65c2.45-1.48,3.71-4.67,4.35-7.71l1.64,4.76Z"/><path class="cls-152" d="M387.2,546.09a10.33,10.33,0,0,1,.05,1.46l-36-17-10.19-21.18-1.61-7.24a32.84,32.84,0,0,1,4.6-6.7c5.95-3.44,15.05-6.82,23.28-2.14,6.14,3.49,15.83,12.91,24.66,22.24C389.53,522.87,386.16,535.28,387.2,546.09Z"/><path class="cls-156" d="M474.63,467.11"/><path class="cls-150" d="M704.29,607.44a62.73,62.73,0,0,1,4.18-9.94,63,63,0,0,1,4.87-11.17c-2.29-1.8-5.5-4.32-9.39-7.35-23.78-18.52-72.64-55.82-87.58-61.74C588,506,501.09,552.9,501.09,552.9l27.34,15,20.12,2.27,27.6,3.09L626,563.09,674.26,588l16.62,8.59,10.2,5.28C702.08,602.54,702.54,604.76,704.29,607.44Z"/><path class="cls-157" d="M674.26,588,626,563.09l-49.87,10.18-27.6-3.09-1.89-3.88s42.9-21.44,56.3-17.69,22.52,10.72,29.49,9.65,23.59-7.5,27.35,7.51C661.85,574,668.6,582.25,674.26,588Z"/><path class="cls-143" d="M669.84,648.69l.9,1,10.94,12a85,85,0,0,1,19.11-11.88c-1.31-2-4.5-6.93-8.93-13.6-.23-.36-.48-.73-.73-1.1C673,607.84,635.88,553.7,621,544.68c-12.31-7.48-51.83,25.38-51.83,25.38l7,3.4,44.16,21.62,49,53Z"/><path class="cls-158" d="M669.84,648.69l-.52-.57-49-53-44.16-21.62,1.08-.72S608.86,569,617.44,577s9.11,18.76,15.55,23.05,23,12.34,25.74,22.52C660.62,629.8,666.54,642.1,669.84,648.69Z"/><path class="cls-159" d="M622.09,597.58l-97.59-7.86-161.21-35-16.8-23.24-6.44-11.79s2,.27,5.19.78c9.87,1.57,30.95,5.34,37.71,9.94l8.93,6.08s28.6,3.21,38.25,8.22,10.37,5.72,10.37,5.72,54.33-2.5,72.92,4.64,26.45,11.44,26.45,11.44,7.15-2.5,22.52,1.79,16.44,4.64,16.44,4.64,16.09-1.07,24.67-.35c2.57.22,7.14,3.93,7.14,3.93S621,579,622.09,585.07a33.77,33.77,0,0,1,.44,4.28A45.24,45.24,0,0,1,622.09,597.58Z"/><path class="cls-160" d="M564.36,510.9a27.45,27.45,0,0,0,3.16.64c-.62-5.45-1.49-12.69-2.43-19.35Z"/><path class="cls-161" d="M400,500.62c-9.71.19-28.19-9.75-38.1-15.53,7.26-.62,9,3.23,19.33,5.88,11.53,2.95,16.35-3.13,16.35-3.13L395.73,477c1.09.37,4.82,2.58,10.25,5.83C407.78,490.35,408.6,500.46,400,500.62Z"/><path class="cls-162" d="M623.47,595c-24.93,21.8-99.37,19.61-176.25-1.78-89-24.77-153.41-72.49-143.92-106.58a26.08,26.08,0,0,1,4-8.28c-.87,8.5-.28,22.43,10.56,30.92,16.44,12.87,32.53,18.95,36.82,30.38S397.24,569,410.47,569s87.22,12.5,100.44,23.23,104.38,10,110.46,3.93A3.3,3.3,0,0,1,623.47,595Z"/><path class="cls-163" d="M503.58,482.1c-6.95.62-8,5.87-8.66,3-.43-1.87-3-6.23-5.36-9.86.31.17.58.33.8.48,5.9,3.75,7.51,4.83,7.51,4.83S500.26,481.1,503.58,482.1Z"/><path class="cls-164" d="M496.93,746.87a96.43,96.43,0,0,1-13.13,7.72c22.54-2.73,41.84-7.88,55.3-14.61-3.72-16.36-42.14-29.32-89.57-29.84C476,717.48,494.4,731.07,496.93,746.87Z"/><path class="cls-165" d="M353.72,740c20.46,10.2,54.36,16.85,92.69,16.85a301.48,301.48,0,0,0,37.39-2.24,96.43,96.43,0,0,0,13.13-7.72c-2.53-15.8-21-29.39-47.4-36.73-1,0-2.07,0-3.12,0C397.57,710.11,357.53,723.27,353.72,740Z"/><path class="cls-134" d="M350.93,751.26a504.68,504.68,0,0,0,145.15,6.67l0,0c9.59-8.21,0-13.84,0-13.84a489.58,489.58,0,0,1-142.5-6.34,6.81,6.81,0,0,0-8,5.29l0,.14A6.83,6.83,0,0,0,350.93,751.26Z"/><path class="cls-166" d="M496.11,757.9q23-2.22,45.77-6.64a6.83,6.83,0,0,0,5.38-8.11.36.36,0,0,0,0-.14,6.82,6.82,0,0,0-8-5.29q-21.48,4.13-43.16,6.34S505.7,749.69,496.11,757.9Z"/><path class="cls-134" d="M437.5,652.69h0c-15.7,2.34-16.05,2.37-16.05,2.37-15.7,1-30.42-5.44-30.42-5.44h0S366.74,638,346.58,618.74c-4-3.83-7-7.14-8.59-9h0c3.59,21.54,4.11,24,4.11,24,3.26,15.43,9.13,26.63,13,33.92,28.39,54.11,92.33,76.4,103.9,80.23h0c0,1.13-.2,6-3.9,9.16-3.44,2.89-7.78,2.44-11.19,2.08A23.74,23.74,0,0,1,433,755.09c-12-5.28-28.15-14.31-45.67-27.65-15.75-12-30.7-26.77-40.88-44.41,0,0-21-34.87-18.65-93.71,0-.85.35-7.94,2-8.15,1.89-.25,3.24,8.85,9.45,18.82,3.39,5.43,6.7,8.69,11.23,13.14a119.73,119.73,0,0,0,27.33,20,151.17,151.17,0,0,0,59.71,19.51Z"/></g><path class="cls-142" d="M753.63,689.8S739,693,730,689.8s-13.94-10-24.67-8.22c-11.15,1.86-13.94,3.58-18.94-2.5S682.85,663,682.85,663l0,0-12.09-13.28a41,41,0,0,0,16.65-10.38,52.18,52.18,0,0,0,3.74-4.17c.25.37.5.74.73,1.1,5.88,8.86,9.58,14.61,9.58,14.61s28.6,22.53,31.45,25.38,7.16,5.72,9.66,5.72,9.29,1.43,10,3.93S753.63,689.8,753.63,689.8Z"/><path class="cls-167" d="M683.39,646.2c-6.17,9.26-1,16.21-.56,16.76l-12.09-13.28c7.1-2.19,16.72-11.31,20.69-15.28C690.37,636.53,685,643.76,683.39,646.2Z"/><path class="cls-142" d="M754.7,606c-9.11,1.61-18.23.54-23.59,2.68s-15.35,8.51-21.81,3.93-6.61-9.65-8.22-10.72l-2.3-1.19-7.9-4.09.19-.08c6.6-2.55,10.54-10.69,12.64-16.85.09-.24.16-.46.24-.68,7.77,6,12.86,10.09,13.22,10.38s15,1.61,21.45,2.14,28.77-.89,30.38,1.79S763.82,604.37,754.7,606Z"/><path class="cls-168" d="M701.8,589.36c-2.42,5.64-3.63,9.26-3,11.32l-7.9-4.09.19-.08c6.6-2.55,10.54-10.69,12.64-16.85A23.38,23.38,0,0,1,701.8,589.36Z"/></g><polygon class="cls-169" points="462.2 559.84 525.42 549.1 590.79 517.97 523.64 525.55 462.2 559.84"/><path class="cls-170" d="M590.89,518.34l-65.37,31.13,7.81-74.07c.36-3.33,2.58-5.78,5.28-7.7.3-.22.6-.43.9-.62,15.64-10.21,59.61-30.61,62.38-25.05C605.93,450.12,590.89,518.34,590.89,518.34Z"/><path class="cls-171" d="M574,496.29c.07,6.24-1.79,11.81-4.14,12.43s-4.33-3.94-4.4-10.19,1.79-11.81,4.15-12.43S573.94,490,574,496.29Z"/><path class="cls-172" d="M590.64,518.46l-65.12,31,7.81-74.07c.36-3.33,2.58-5.78,5.28-7.7C540.45,478.88,547.15,516.09,590.64,518.46Z"/></g></g></svg>